<?xml version="1.0" encoding="UTF-8"?>
<svg version="1.1" xmlns="http://www.w3.org/2000/svg" width="500" height="500">
<path d="M0 0 C165 0 330 0 500 0 C500 165 500 330 500 500 C335 500 170 500 0 500 C0 335 0 170 0 0 Z " fill="#FEFEFE" transform="translate(0,0)"/>
<path d="M0 0 C3.46251976 1.48877197 5.70085395 3.45381172 8.35333252 6.11282349 C9.21707489 6.97381653 10.08081726 7.83480957 10.97073364 8.72189331 C11.91970982 9.67794713 12.86858966 10.63409658 13.81738281 11.59033203 C14.82245647 12.59596998 15.82797103 13.60116746 16.83389282 14.60595703 C19.56120591 17.33269629 22.28230848 20.0655581 25.00234318 22.7995553 C27.84684044 25.65655487 30.69700229 28.50789188 33.54656982 31.35983276 C38.94076494 36.76024411 44.32984153 42.16573348 49.71710086 47.57306278 C55.8509762 53.72929264 61.99053138 59.87984461 68.13057184 66.02992463 C80.76004796 78.68030599 93.38236845 91.33780527 106 104 C104.61392869 106.88011503 103.29430637 108.95186427 101.01904297 111.20800781 C100.41857147 111.80832825 99.81809998 112.40864868 99.19943237 113.02716064 C98.23059616 113.980513 98.23059616 113.980513 97.2421875 114.953125 C96.57913605 115.61334656 95.91608459 116.27356812 95.23294067 116.95379639 C93.11828168 119.05727824 90.99676788 121.15369142 88.875 123.25 C87.43834443 124.67662261 86.00214102 126.10370072 84.56640625 127.53125 C81.04949196 131.02613661 77.52641453 134.51470062 74 138 C70.53748024 136.51122803 68.29914605 134.54618828 65.64666748 131.88717651 C64.78292511 131.02618347 63.91918274 130.16519043 63.02926636 129.27810669 C62.08029018 128.32205287 61.13141034 127.36590342 60.18261719 126.40966797 C59.17754353 125.40403002 58.17202897 124.39883254 57.16610718 123.39404297 C54.43879409 120.66730371 51.71769152 117.9344419 48.99765682 115.2004447 C46.15315956 112.34344513 43.30299771 109.49210812 40.45343018 106.64016724 C35.05923506 101.23975589 29.67015847 95.83426652 24.28289914 90.42693722 C18.1490238 84.27070736 12.00946862 78.12015539 5.86942816 71.97007537 C-6.76004796 59.31969401 -19.38236845 46.66219473 -32 34 C-30.61392869 31.11988497 -29.29430637 29.04813573 -27.01904297 26.79199219 C-26.41857147 26.19167175 -25.81809998 25.59135132 -25.19943237 24.97283936 C-24.55354156 24.33727112 -23.90765076 23.70170288 -23.2421875 23.046875 C-22.57913605 22.38665344 -21.91608459 21.72643188 -21.23294067 21.04620361 C-19.11828168 18.94272176 -16.99676788 16.84630858 -14.875 14.75 C-13.43834443 13.32337739 -12.00214102 11.89629928 -10.56640625 10.46875 C-7.04949196 6.97386339 -3.52641453 3.48529938 0 0 Z " fill="#226B10" transform="translate(63,171)"/>
<path d="M0 0 C2.90543872 1.31376917 4.96661059 2.72056492 7.20800781 4.98095703 C7.80832825 5.58142853 8.40864868 6.18190002 9.02716064 6.80056763 C9.66272888 7.44645844 10.29829712 8.09234924 10.953125 8.7578125 C11.61334656 9.42086395 12.27356812 10.08391541 12.95379639 10.76705933 C15.05727824 12.88171832 17.15369142 15.00323212 19.25 17.125 C20.67662261 18.56165557 22.10370072 19.99785898 23.53125 21.43359375 C27.02613661 24.95050804 30.51470062 28.47358547 34 32 C32.51122803 35.46251976 30.54618828 37.70085395 27.88717651 40.35333252 C27.02618347 41.21707489 26.16519043 42.08081726 25.27810669 42.97073364 C24.32205287 43.91970982 23.36590342 44.86858966 22.40966797 45.81738281 C21.40403002 46.82245647 20.39883254 47.82797103 19.39404297 48.83389282 C16.66730371 51.56120591 13.9344419 54.28230848 11.2004447 57.00234318 C8.34344513 59.84684044 5.49210812 62.69700229 2.64016724 65.54656982 C-2.76024411 70.94076494 -8.16573348 76.32984153 -13.57306278 81.71710086 C-19.72929264 87.8509762 -25.87984461 93.99053138 -32.02992463 100.13057184 C-44.68030599 112.76004796 -57.33780527 125.38236845 -70 138 C-72.8048814 136.64553769 -74.90175085 135.35805319 -77.13208008 133.17431641 C-77.71560745 132.60677643 -78.29913483 132.03923645 -78.90034485 131.45449829 C-79.51717636 130.84302948 -80.13400787 130.23156067 -80.76953125 129.6015625 C-81.40992844 128.97019379 -82.05032562 128.33882507 -82.71012878 127.68832397 C-84.05840931 126.35452493 -85.40391793 125.01791882 -86.74682617 123.67871094 C-88.81043182 121.62705621 -90.89195356 119.59479077 -92.97460938 117.5625 C-94.28239464 116.2641728 -95.58907447 114.96473095 -96.89453125 113.6640625 C-97.52148392 113.05664215 -98.14843658 112.4492218 -98.79438782 111.82339478 C-100.51489258 110.08447266 -100.51489258 110.08447266 -103 107 C-102.56967816 102.54351541 -99.52716246 100.1639287 -96.4609375 97.203125 C-95.90185699 96.65066101 -95.34277649 96.09819702 -94.76675415 95.5289917 C-92.97646569 93.7620823 -91.17637166 92.00560265 -89.375 90.25 C-87.59673081 88.50707348 -85.82070993 86.76194464 -84.04751587 85.01385498 C-82.94550552 83.92848727 -81.84041121 82.8462374 -80.73153687 81.7678833 C-77.93241985 79.02162304 -75.28204781 76.20660232 -72.72750854 73.23048401 C-69.35669856 69.36132619 -65.83289584 65.69709508 -62.19433594 62.08081055 C-61.55439697 61.44072556 -60.91445801 60.80064056 -60.25512695 60.14115906 C-58.16724129 58.05396257 -56.07584961 55.97031837 -53.984375 53.88671875 C-52.5216108 52.42582292 -51.05906967 50.96470371 -49.59674072 49.50337219 C-45.7664149 45.67684396 -41.93309603 41.85332808 -38.09912109 38.03045654 C-34.19186559 34.13345444 -30.28745821 30.23360109 -26.3828125 26.33398438 C-20.08508767 20.04503351 -13.78559602 13.75785889 -7.48394775 7.47283936 C-4.98786453 4.9833226 -2.49240614 2.49319798 0 0 Z " fill="#226B10" transform="translate(205,261)"/>
<path d="M0 0 C4.00842859 1.34918569 6.4150063 3.03865894 9.3976593 6.01670837 C10.24594803 6.85653763 11.09423676 7.69636688 11.9682312 8.56164551 C13.34387741 9.94640076 13.34387741 9.94640076 14.74731445 11.35913086 C15.73264109 12.34039044 16.71860437 13.32101109 17.70515442 14.30104065 C20.37711062 16.95933703 23.03951045 19.62701532 25.69987893 22.29690242 C28.48473462 25.08935728 31.27690672 27.87448087 34.06791687 30.66078186 C38.75129154 35.33870156 43.42831111 40.02290531 48.10180664 44.71069336 C53.50908913 50.13432091 58.92712032 55.54703051 64.35082465 60.95423216 C69.00609494 65.59590297 73.65551157 70.24337643 78.30005616 74.89577967 C81.07468673 77.67509277 83.85131748 80.45232603 86.63323402 83.22434807 C89.24607398 85.82854236 91.8515046 88.43992683 94.45132256 91.05711937 C95.86568109 92.47735628 97.28746206 93.89018924 98.70941162 95.30282593 C99.54360123 96.14547501 100.37779083 96.98812408 101.23725891 97.85630798 C101.96819921 98.58837935 102.6991395 99.32045073 103.4522295 100.07470608 C105 102 105 102 105 105 C103.38679777 106.76514713 101.7401443 108.3656442 100 110 C98.61416347 111.38892608 97.23306731 112.78259024 95.85546875 114.1796875 C94.29954101 115.74485315 92.7435498 117.3099557 91.1875 118.875 C90.41857422 119.65230469 89.64964844 120.42960937 88.85742188 121.23046875 C85.1932643 124.91008691 81.49662092 128.55305125 77.67578125 132.0703125 C76.75599487 132.92133545 76.75599487 132.92133545 75.81762695 133.78955078 C74 135 74 135 70 135 C67.94886494 133.44943619 67.94886494 133.44943619 65.72932434 131.23052979 C64.88385544 130.39489502 64.03838654 129.55926025 63.16729736 128.69830322 C62.24817566 127.76951355 61.32905396 126.84072388 60.38208008 125.88378906 C59.39873904 124.90423044 58.41454085 123.92553165 57.42955017 122.94763184 C54.75518243 120.28724701 52.09357612 117.61442225 49.43444657 114.93881702 C46.65183335 112.14237075 43.85909274 109.35607085 41.0677948 106.56829834 C36.38101462 101.88422188 31.7023955 97.19211233 27.02856445 92.49511719 C21.62333468 87.06328446 16.20578894 81.6439818 10.78137285 76.23131394 C5.56636171 71.02707942 0.35987039 65.8144026 -4.84267616 60.59770966 C-7.05804796 58.37657627 -9.27631513 56.15839496 -11.49693871 53.94251251 C-14.11152348 51.33269746 -16.71855528 48.71556406 -19.31992149 46.09257507 C-20.7329235 44.67134662 -22.15331009 43.25747203 -23.57388306 41.84381104 C-24.41089249 40.99689697 -25.24790192 40.14998291 -26.11027527 39.27740479 C-26.84159259 38.54365757 -27.57290991 37.80991035 -28.32638836 37.05392838 C-30.03963942 34.95135279 -30.72138211 33.68070379 -31 31 C-29.94337463 29.34210205 -29.94337463 29.34210205 -28.26782227 27.70019531 C-27.336744 26.76968353 -27.336744 26.76968353 -26.38685608 25.82037354 C-25.70360764 25.16293152 -25.02035919 24.5054895 -24.31640625 23.828125 C-23.62691391 23.1457074 -22.93742157 22.46328979 -22.22703552 21.76019287 C-20.01695201 19.57815115 -17.79013937 17.41410214 -15.5625 15.25 C-14.0633206 13.77589049 -12.56525846 12.30064378 -11.06835938 10.82421875 C-7.39175222 7.20281122 -3.70004551 3.59745061 0 0 Z " fill="#226C10" transform="translate(364,192)"/>
<path d="M0 0 C2.82779011 1.29050523 4.9140819 2.65402026 7.13208008 4.82568359 C8.00737114 5.67699356 8.00737114 5.67699356 8.90034485 6.54550171 C9.82559212 7.46270493 9.82559212 7.46270493 10.76953125 8.3984375 C11.40992844 9.02980621 12.05032562 9.66117493 12.71012878 10.31167603 C14.05840931 11.64547507 15.40391793 12.98208118 16.74682617 14.32128906 C18.81043182 16.37294379 20.89195356 18.40520923 22.97460938 20.4375 C24.28239464 21.7358272 25.58907447 23.03526905 26.89453125 24.3359375 C27.52148392 24.94335785 28.14843658 25.5507782 28.79438782 26.17660522 C30.51489258 27.91552734 30.51489258 27.91552734 33 31 C32.81009794 34.83355208 30.63090336 36.73951715 28.00743103 39.35333252 C27.14781265 40.21707489 26.28819427 41.08081726 25.40252686 41.97073364 C24.44288714 42.91975638 23.48310449 43.8686346 22.52319336 44.81738281 C21.51748821 45.82224171 20.51244327 46.82776173 19.50801086 47.83389282 C16.77929728 50.56346786 14.04142656 53.28368838 11.30183864 56.00234318 C8.44038462 58.84505551 5.58741244 61.69625411 2.73353577 64.54656982 C-2.67200175 69.94277951 -8.08514177 75.33129571 -13.50104374 80.71710086 C-19.66646918 86.8490053 -25.8233879 92.98942078 -31.97960103 99.13057184 C-44.64361422 111.7632193 -57.31828963 124.38511981 -70 137 C-71.10146846 136.06518608 -72.20159002 135.12878502 -73.30116272 134.19174194 C-73.91394105 133.67045904 -74.52671938 133.14917614 -75.15806675 132.61209679 C-78.02071428 130.10665047 -80.69518224 127.42840608 -83.37109375 124.7265625 C-83.93828629 124.15795502 -84.50547882 123.58934753 -85.08985901 123.00350952 C-86.87479913 121.21303764 -88.65620256 119.41909516 -90.4375 117.625 C-91.65796939 116.39950677 -92.87867053 115.17424428 -94.09960938 113.94921875 C-97.06908756 110.96880226 -100.03540257 107.98527106 -103 105 C-101.62235946 100.83297581 -99.77478951 98.40402477 -96.67724609 95.32080078 C-95.7822641 94.42281769 -94.8872821 93.52483459 -93.96517944 92.59963989 C-92.98482583 91.63130086 -92.00423921 90.66319767 -91.0234375 89.6953125 C-90.01354523 88.68848257 -89.00424682 87.68105667 -87.99551392 86.67306519 C-85.87995389 84.56210228 -83.75959096 82.45613342 -81.63525391 80.35400391 C-78.93216498 77.67905107 -76.2376884 74.99563695 -73.54639244 72.30882454 C-70.95853911 69.72617 -68.3660461 67.14819175 -65.7734375 64.5703125 C-65.28843151 64.08718723 -64.80342552 63.60406197 -64.30372238 63.10629654 C-55.65531926 54.50115439 -55.65531926 54.50115439 -51.01806641 50.5246582 C-45.72330379 45.97352651 -40.85785712 40.98177936 -35.9375 36.03515625 C-34.8954026 34.99118934 -33.85308091 33.94744628 -32.81054688 32.90391541 C-30.09255554 30.18214078 -27.3775831 27.45737477 -24.66326904 24.73193359 C-21.88282982 21.94118927 -19.09948971 19.15334129 -16.31640625 16.36523438 C-10.87479158 10.91295642 -5.43636897 5.45750891 0 0 Z " fill="#216B0F" transform="translate(365,101)"/>
<path d="M0 0 C3.39687834 1.47142926 5.61963058 3.36633247 8.23271179 5.97201538 C9.06976654 6.80198532 9.90682129 7.63195526 10.76924133 8.48707581 C11.6790123 9.39932419 12.58878326 10.31157257 13.52612305 11.25146484 C14.50004153 12.22103488 15.47437673 13.19018649 16.44909668 14.15895081 C19.09206844 16.78853792 21.72860442 19.42448912 24.36362433 22.06204176 C26.56376546 24.26325262 28.76687584 26.46147971 30.96994621 28.65975821 C36.16599815 33.84471753 41.35670612 39.03498464 46.54418945 44.22851562 C51.89779644 49.58816772 57.26052568 54.9385664 62.62778634 60.28454244 C67.23537929 64.87453323 71.83715901 69.47029544 76.43433028 74.07072413 C79.18025678 76.81846531 81.92837218 79.56392395 84.68213463 82.30381393 C87.27024312 84.8793707 89.85102709 87.46204697 92.42632294 90.05041313 C93.82498694 91.45257965 95.23107184 92.84733146 96.63734436 94.24186707 C97.46593964 95.07747665 98.29453491 95.91308624 99.14823914 96.77401733 C99.87218211 97.49779257 100.59612509 98.2215678 101.34200573 98.96727562 C103.04826484 101.05917338 103.71971426 102.33170221 104 105 C102.94337463 106.65789795 102.94337463 106.65789795 101.26782227 108.29980469 C100.336744 109.23031647 100.336744 109.23031647 99.38685608 110.17962646 C98.70360764 110.83706848 98.02035919 111.4945105 97.31640625 112.171875 C96.62691391 112.8542926 95.93742157 113.53671021 95.22703552 114.23980713 C93.01695201 116.42184885 90.79013937 118.58589786 88.5625 120.75 C87.0633206 122.22410951 85.56525846 123.69935622 84.06835938 125.17578125 C80.39175222 128.79718878 76.70004551 132.40254939 73 136 C67.97787545 134.51428663 65.15060623 131.56394814 61.57666016 127.93310547 C60.95319199 127.31168167 60.32972382 126.69025787 59.68736267 126.05000305 C57.63059935 123.99624436 55.58477675 121.93194756 53.5390625 119.8671875 C52.10624649 118.43131148 50.67283688 116.99602759 49.23886108 115.56130981 C46.23342246 112.55126908 43.23295792 109.53638819 40.23632812 106.51757812 C36.41125244 102.66432247 32.57765072 98.81969866 28.74070168 94.97826958 C25.0661657 91.29855175 21.39631796 87.61417174 17.7265625 83.9296875 C17.03305317 83.23429745 16.33954384 82.53890739 15.62501907 81.82244492 C2.20454432 68.35496867 2.20454432 68.35496867 -2.59585571 62.56692505 C-4.84732263 60.05444828 -7.44755303 57.96696194 -10.01953125 55.79296875 C-12.74355914 53.32683699 -15.04640948 50.56936308 -17.41796875 47.76953125 C-19.04672941 45.84933743 -19.04672941 45.84933743 -21.5 44 C-25.10798416 41.11361267 -28.31497598 37.76831902 -31 34 C-31 31 -31 31 -29.82312012 29.46235657 C-29.27240845 28.91830673 -28.72169678 28.3742569 -28.15429688 27.8137207 C-27.53365356 27.19330399 -26.91301025 26.57288727 -26.27355957 25.93367004 C-25.59547241 25.27106674 -24.91738525 24.60846344 -24.21875 23.92578125 C-23.53067261 23.2419487 -22.84259521 22.55811615 -22.13366699 21.8535614 C-19.92936821 19.66608634 -17.71487856 17.48925714 -15.5 15.3125 C-14.00582867 13.83337066 -12.51233012 12.35356135 -11.01953125 10.87304688 C-7.35412108 7.24075507 -3.67953619 3.61797909 0 0 Z " fill="#226B10" transform="translate(204,31)"/>
<path d="M0 0 C4.83824361 2.99159622 8.69418699 6.41441427 12.68359375 10.453125 C13.6114846 11.38170319 13.6114846 11.38170319 14.55812073 12.32904053 C15.86054381 13.63447128 17.16054922 14.94231815 18.45825195 16.25244141 C20.42287105 18.23523572 22.39529215 20.20999142 24.36914062 22.18359375 C25.64109584 23.46046865 26.91259497 24.73779806 28.18359375 26.015625 C28.76298203 26.5961261 29.3423703 27.1766272 29.9393158 27.77471924 C32.74980103 30.61718282 35.44821684 33.49977979 38.03344727 36.54882812 C43.11433239 42.41316029 48.725323 47.76790319 54.25282288 53.20572662 C57.02539151 55.93588341 59.78835842 58.67567356 62.55199432 61.4148674 C67.68359033 66.50084465 72.81913113 71.58268752 77.97070312 76.6484375 C81.56860159 80.18712576 85.15432259 83.73775189 88.73216248 87.29671478 C90.09609262 88.64887842 91.46455306 89.99648789 92.83753967 91.33945465 C94.74768838 93.20882578 96.64195124 95.0929862 98.53320312 96.98144531 C99.10554687 97.53424164 99.67789063 98.08703796 100.26757812 98.65658569 C103.99446118 102.42312114 103.99446118 102.42312114 104.02088928 105.17565918 C102.90226449 107.17465448 101.76383217 108.59722012 100.13256836 110.20800781 C99.53202133 110.80832825 98.9314743 111.40864868 98.31272888 112.02716064 C97.66167679 112.66272888 97.01062469 113.29829712 96.33984375 113.953125 C95.67537735 114.61334656 95.01091095 115.27356812 94.3263092 115.95379639 C92.20364437 118.0596764 90.07078395 120.15488328 87.9375 122.25 C86.49606066 123.67639232 85.05529691 125.1034677 83.61523438 126.53125 C80.08461168 130.02880594 76.54480947 133.51682565 73 137 C69.55530082 135.51619764 67.32441693 133.57149259 64.68463135 130.92514038 C63.82930313 130.07256149 62.97397491 129.2199826 62.09272766 128.34156799 C61.15319666 127.39495937 60.21376201 126.44825511 59.27441406 125.50146484 C58.2791925 124.50567898 57.28353002 123.51033361 56.28746033 122.51539612 C53.58700572 119.81551531 50.89276184 117.10951264 48.19958591 114.40237379 C45.38311612 111.57340123 42.56098129 108.75009167 39.73944092 105.92617798 C34.39836959 100.57889055 29.06241696 95.22652533 23.72828174 89.87231982 C17.65486497 83.77654811 11.575768 77.68645466 5.49618578 71.59683299 C-7.00887648 59.0708658 -19.5067829 46.53778085 -32 34 C-30.61392869 31.11988497 -29.29430637 29.04813573 -27.01904297 26.79199219 C-26.41857147 26.19167175 -25.81809998 25.59135132 -25.19943237 24.97283936 C-24.55354156 24.33727112 -23.90765076 23.70170288 -23.2421875 23.046875 C-22.57913605 22.38665344 -21.91608459 21.72643188 -21.23294067 21.04620361 C-19.11828168 18.94272176 -16.99676788 16.84630858 -14.875 14.75 C-13.43834443 13.32337739 -12.00214102 11.89629928 -10.56640625 10.46875 C-7.04949196 6.97386339 -3.52641453 3.48529938 0 0 Z " fill="#216B10" transform="translate(224,331)"/>
<path d="M0 0 C1.10146846 0.93481392 2.20159002 1.87121498 3.30116272 2.80825806 C3.91394105 3.32954096 4.52671938 3.85082386 5.15806675 4.38790321 C8.02071428 6.89334953 10.69518224 9.57159392 13.37109375 12.2734375 C13.93828629 12.84204498 14.50547882 13.41065247 15.08985901 13.99649048 C16.87479913 15.78696236 18.65620256 17.58090484 20.4375 19.375 C21.65796939 20.60049323 22.87867053 21.82575572 24.09960938 23.05078125 C27.06908756 26.03119774 30.03540257 29.01472894 33 32 C28.61618886 37.24471606 24.00291191 42.13522023 19.15869141 46.95483398 C18.39703674 47.71663467 17.63538208 48.47843536 16.85064697 49.26332092 C14.35331728 51.75995857 11.85247313 54.25304362 9.3515625 56.74609375 C7.61114002 58.48464954 5.87093939 60.22342744 4.13095093 61.9624176 C-0.43376321 66.52332637 -5.00147327 71.08122314 -9.56982422 75.63848877 C-14.23717278 80.29558054 -18.90166724 84.95552903 -23.56640625 89.61523438 C-32.70815409 98.74627983 -41.85297437 107.87424173 -51 117 C-53.83374242 115.63441112 -55.89648438 114.35003769 -58.11621094 112.11083984 C-58.69651062 111.5303891 -59.2768103 110.94993835 -59.87469482 110.35189819 C-60.48838928 109.72788116 -61.10208374 109.10386414 -61.734375 108.4609375 C-62.37240051 107.82008209 -63.01042603 107.17922668 -63.66778564 106.51895142 C-65.69994069 104.47562179 -67.72502218 102.42544018 -69.75 100.375 C-71.1284453 98.9865214 -72.50734636 97.5984951 -73.88671875 96.2109375 C-77.26311894 92.81251303 -80.63319288 89.40792746 -84 86 C-82.62175583 82.9042446 -81.04096882 80.79313711 -78.64645386 78.40594482 C-77.9537439 77.71048553 -77.26103394 77.01502625 -76.54733276 76.29849243 C-75.78776276 75.54611298 -75.02819275 74.79373352 -74.24560547 74.01855469 C-73.44552063 73.2181778 -72.64543579 72.4178009 -71.82110596 71.59317017 C-69.17451263 68.94797053 -66.52090472 66.30992615 -63.8671875 63.671875 C-62.03115034 61.83956781 -60.19555414 60.00681866 -58.36038208 58.17364502 C-54.02212581 53.84224566 -49.67944496 49.51532896 -45.33458912 45.19055104 C-40.38752156 40.26584851 -35.44614083 35.3354567 -30.5052278 30.40458059 C-20.34313072 20.2633811 -10.17391755 10.12934016 0 0 Z " fill="#226C10" transform="translate(206,121)"/>
<path d="M0 0 C1.10146846 0.93481392 2.20159002 1.87121498 3.30116272 2.80825806 C3.91394105 3.32954096 4.52671938 3.85082386 5.15806675 4.38790321 C8.02071428 6.89334953 10.69518224 9.57159392 13.37109375 12.2734375 C13.93828629 12.84204498 14.50547882 13.41065247 15.08985901 13.99649048 C16.87479913 15.78696236 18.65620256 17.58090484 20.4375 19.375 C21.65796939 20.60049323 22.87867053 21.82575572 24.09960938 23.05078125 C27.06908756 26.03119774 30.03540257 29.01472894 33 32 C28.61618886 37.24471606 24.00291191 42.13522023 19.15869141 46.95483398 C18.39703674 47.71663467 17.63538208 48.47843536 16.85064697 49.26332092 C14.35331728 51.75995857 11.85247313 54.25304362 9.3515625 56.74609375 C7.61114002 58.48464954 5.87093939 60.22342744 4.13095093 61.9624176 C-0.43376321 66.52332637 -5.00147327 71.08122314 -9.56982422 75.63848877 C-14.23717278 80.29558054 -18.90166724 84.95552903 -23.56640625 89.61523438 C-32.70815409 98.74627983 -41.85297437 107.87424173 -51 117 C-52.10146846 116.06518608 -53.20159002 115.12878502 -54.30116272 114.19174194 C-54.91394105 113.67045904 -55.52671938 113.14917614 -56.15806675 112.61209679 C-59.02071428 110.10665047 -61.69518224 107.42840608 -64.37109375 104.7265625 C-64.93828629 104.15795502 -65.50547882 103.58934753 -66.08985901 103.00350952 C-67.87479913 101.21303764 -69.65620256 99.41909516 -71.4375 97.625 C-72.65796939 96.39950677 -73.87867053 95.17424428 -75.09960938 93.94921875 C-78.06908756 90.96880226 -81.03540257 87.98527106 -84 85 C-79.61618886 79.75528394 -75.00291191 74.86477977 -70.15869141 70.04516602 C-69.01620941 68.90246498 -69.01620941 68.90246498 -67.85064697 67.73667908 C-65.35331728 65.24004143 -62.85247313 62.74695638 -60.3515625 60.25390625 C-58.61114002 58.51535046 -56.87093939 56.77657256 -55.13095093 55.0375824 C-50.56623679 50.47667363 -45.99852673 45.91877686 -41.43017578 41.36151123 C-36.76282722 36.70441946 -32.09833276 32.04447097 -27.43359375 27.38476562 C-18.29184591 18.25372017 -9.14702563 9.12575827 0 0 Z " fill="#226B10" transform="translate(346,261)"/>
<path d="M0 0 C1.45335484 1.47280121 1.45335484 1.47280121 3.13929749 3.50720215 C6.82786316 7.84154481 10.73789036 11.87257 14.77124023 15.88476562 C15.51353378 16.6272052 16.25582733 17.36964478 17.02061462 18.13458252 C19.44757535 20.56085277 21.87804682 22.98357275 24.30859375 25.40625 C26.00274677 27.09853577 27.69667753 28.79104407 29.39039612 30.48376465 C33.82850599 34.91807358 38.26961179 39.34936997 42.71136475 43.7800293 C47.25145978 48.30985792 51.78869216 52.8425519 56.32617188 57.375 C65.2146607 66.25279427 74.10622264 75.12750395 83 84 C81.63441112 86.83374242 80.35003769 88.89648438 78.11083984 91.11621094 C77.5303891 91.69651062 76.94993835 92.2768103 76.35189819 92.87469482 C75.72788116 93.48838928 75.10386414 94.10208374 74.4609375 94.734375 C73.82008209 95.37240051 73.17922668 96.01042603 72.51895142 96.66778564 C70.47562179 98.69994069 68.42544018 100.72502218 66.375 102.75 C64.9865214 104.1284453 63.5984951 105.50734636 62.2109375 106.88671875 C58.81251303 110.26311894 55.40792746 113.63319288 52 117 C46.83063414 112.6770843 42.00590349 108.13948909 37.26049805 103.3581543 C36.52141708 102.61761307 35.78233612 101.87707184 35.02085876 101.11408997 C33.42816219 99.51760845 31.83662118 97.91997342 30.24612999 96.32129478 C27.73123477 93.79357937 25.21317901 91.26905092 22.69429016 88.74531555 C17.35587896 83.39551289 12.02141781 78.04178222 6.6875 72.6875 C0.48847477 66.4648922 -5.71214911 60.24389518 -11.91698265 54.02707863 C-14.40188364 51.53567886 -16.88376378 49.04129589 -19.36555481 46.54679871 C-20.87937976 45.02934348 -22.39334402 43.51202721 -23.9074707 41.99487305 C-24.59993896 41.29723846 -25.29240723 40.59960388 -26.00585938 39.88082886 C-26.63796829 39.24864944 -27.27007721 38.61647003 -27.92134094 37.96513367 C-28.74561317 37.13753052 -28.74561317 37.13753052 -29.58653736 36.29320812 C-30.98937035 34.89122788 -30.98937035 34.89122788 -33 34 C-32.41734718 30.75159967 -31.48890082 29.11379777 -29.16430664 26.79199219 C-28.570215 26.19167175 -27.97612335 25.59135132 -27.36402893 24.97283936 C-26.71925095 24.33727112 -26.07447296 23.70170288 -25.41015625 23.046875 C-24.7504332 22.38665344 -24.09071014 21.72643188 -23.41099548 21.04620361 C-22.01660208 19.65414878 -20.61851906 18.26578137 -19.21704102 16.88085938 C-17.06543192 14.7528997 -14.92750658 12.61187679 -12.79101562 10.46875 C-11.43568731 9.11899645 -10.0795934 7.77001114 -8.72265625 6.421875 C-8.0799025 5.77820984 -7.43714874 5.13454468 -6.7749176 4.47137451 C-6.1776738 3.88366272 -5.58042999 3.29595093 -4.96508789 2.69042969 C-4.43959854 2.16954773 -3.91410919 1.64866577 -3.37269592 1.11199951 C-2 0 -2 0 0 0 Z " fill="#216B0F" transform="translate(225,191)"/>
<path d="M0 0 C4.75085867 3.96372525 9.23613112 8.09794782 13.58984375 12.4921875 C14.47392662 13.37839279 14.47392662 13.37839279 15.37586975 14.28250122 C17.23213727 16.14430404 19.08487085 18.00957745 20.9375 19.875 C22.20614672 21.14867011 23.4750249 22.42210971 24.74414062 23.6953125 C27.83210554 26.79422043 30.91690929 29.89624301 34 33 C29.97251947 37.83298806 25.75620587 42.38110004 21.2890625 46.80859375 C20.67606293 47.42017838 20.06306335 48.031763 19.43148804 48.66188049 C17.49835436 50.58947559 15.56175013 52.51353928 13.625 54.4375 C12.30315301 55.75432404 10.98153628 57.07137926 9.66015625 58.38867188 C6.44275701 61.59512373 3.22224319 64.79841629 0 68 C-2.90543872 66.68623083 -4.96661059 65.27943508 -7.20800781 63.01904297 C-7.80832825 62.41857147 -8.40864868 61.81809998 -9.02716064 61.19943237 C-9.66272888 60.55354156 -10.29829712 59.90765076 -10.953125 59.2421875 C-11.61334656 58.57913605 -12.27356812 57.91608459 -12.95379639 57.23294067 C-15.05727824 55.11828168 -17.15369142 52.99676788 -19.25 50.875 C-20.67662261 49.43834443 -22.10370072 48.00214102 -23.53125 46.56640625 C-27.02613661 43.04949196 -30.51470062 39.52641453 -34 36 C-32.65427113 33.00056095 -31.16462899 30.91923821 -28.83544922 28.60839844 C-27.87467972 27.64785553 -27.87467972 27.64785553 -26.89450073 26.66790771 C-26.20486237 25.98859192 -25.515224 25.30927612 -24.8046875 24.609375 C-24.09724396 23.90476135 -23.38980042 23.20014771 -22.66091919 22.47418213 C-20.40360138 20.2280461 -18.13942367 17.98896991 -15.875 15.75 C-14.34199047 14.22702283 -12.80943285 12.70359061 -11.27734375 11.1796875 C-7.52345427 7.44783185 -3.76391086 3.72174649 0 0 Z " fill="#226B10" transform="translate(65,260)"/>
<path d="M0 0 C2.90543872 1.31376917 4.96661059 2.72056492 7.20800781 4.98095703 C7.80832825 5.58142853 8.40864868 6.18190002 9.02716064 6.80056763 C9.66272888 7.44645844 10.29829712 8.09234924 10.953125 8.7578125 C11.61334656 9.42086395 12.27356812 10.08391541 12.95379639 10.76705933 C15.05727824 12.88171832 17.15369142 15.00323212 19.25 17.125 C20.67662261 18.56165557 22.10370072 19.99785898 23.53125 21.43359375 C27.02613661 24.95050804 30.51470062 28.47358547 34 32 C32.67624661 34.92293008 31.23343726 37.02829096 28.99072266 39.31567383 C28.38314117 39.93924271 27.77555969 40.56281158 27.14956665 41.20527649 C26.49435028 41.86585556 25.83913391 42.52643463 25.1640625 43.20703125 C24.4883017 43.89182053 23.81254089 44.5766098 23.11630249 45.28215027 C21.68834807 46.72459077 20.25758369 48.16425421 18.82421875 49.60131836 C16.6277252 51.80975997 14.4505715 54.03616401 12.2734375 56.26367188 C10.88396432 57.66260331 9.49337666 59.06042886 8.1015625 60.45703125 C7.45039459 61.12773148 6.79922668 61.7984317 6.12832642 62.48945618 C5.20749771 63.40116829 5.20749771 63.40116829 4.26806641 64.33129883 C3.73226959 64.87216629 3.19647278 65.41303375 2.6444397 65.97029114 C1 67 1 67 -1.00276184 66.84204102 C-3.23012086 65.90298042 -4.50385168 64.8885958 -6.22387695 63.19604492 C-6.82742508 62.60840866 -7.43097321 62.0207724 -8.05281067 61.41532898 C-8.69151596 60.7768251 -9.33022125 60.13832123 -9.98828125 59.48046875 C-10.9821711 58.49799919 -10.9821711 58.49799919 -11.99613953 57.49568176 C-13.39264682 56.1099716 -14.7852051 54.7202719 -16.17407227 53.3269043 C-18.30812123 51.19188077 -20.4626052 49.0790755 -22.61914062 46.96679688 C-23.97265275 45.61848984 -25.32491053 44.2689222 -26.67578125 42.91796875 C-27.3246077 42.28553757 -27.97343414 41.65310638 -28.641922 41.00151062 C-29.22970932 40.40441788 -29.81749664 39.80732513 -30.4230957 39.19213867 C-30.94619827 38.67109055 -31.46930084 38.15004242 -32.008255 37.61320496 C-33 36 -33 36 -32.85174561 34.01246643 C-31.86481193 31.68058367 -30.74854959 30.38680194 -28.94897461 28.60839844 C-28.30838608 27.9680365 -27.66779755 27.32767456 -27.00779724 26.66790771 C-26.31299759 25.98859192 -25.61819794 25.30927612 -24.90234375 24.609375 C-24.19348526 23.90476135 -23.48462677 23.20014771 -22.75428772 22.47418213 C-20.4889672 20.22565215 -18.21343792 17.98777762 -15.9375 15.75 C-14.39970665 14.22725292 -12.86258869 12.70382346 -11.32617188 11.1796875 C-7.55858198 7.4451719 -3.78255735 3.7193515 0 0 Z " fill="#226B10" transform="translate(205,402)"/>
<path d="M0 0 C3.62475186 1.86476087 6.20575253 4.43333442 9.05297852 7.32006836 C9.66502136 7.9282843 10.27706421 8.53650024 10.90765381 9.16314697 C12.19669571 10.44947155 13.48071857 11.74084286 14.76000977 13.03686523 C16.71804286 15.01630823 18.69647856 16.97352384 20.67797852 18.92944336 C21.92926304 20.18337119 23.17930613 21.43853931 24.42797852 22.69506836 C25.01959778 23.2785907 25.61121704 23.86211304 26.22076416 24.46331787 C28.4847805 26.77977341 30.2555497 28.85485472 31.76391602 31.73217773 C31.26286065 36.13672528 27.98340752 38.53400454 24.89672852 41.50756836 C23.87316254 42.52551483 23.87316254 42.52551483 22.82891846 43.56402588 C21.38305756 44.99643844 19.93001729 46.42163485 18.47045898 47.84008789 C16.23359188 50.0146982 14.01872869 52.20988306 11.80688477 54.40991211 C10.40056943 55.79788507 8.99305642 57.18464579 7.58422852 58.57006836 C6.58561798 59.55592926 6.58561798 59.55592926 5.5668335 60.56170654 C4.94318909 61.16613586 4.31954468 61.77056519 3.67700195 62.39331055 C3.12993591 62.92672058 2.58286987 63.46013062 2.01922607 64.00970459 C0.47485352 65.27319336 0.47485352 65.27319336 -2.52514648 66.27319336 C-13.08514648 55.71319336 -23.64514648 45.15319336 -34.52514648 34.27319336 C-32.9202946 31.06348958 -31.9953576 29.48422431 -29.62353516 27.04931641 C-29.03920212 26.44576828 -28.45486908 25.84222015 -27.85282898 25.22038269 C-27.22262344 24.5816774 -26.59241791 23.94297211 -25.94311523 23.28491211 C-25.29192215 22.62231888 -24.64072906 21.95972565 -23.96980286 21.27705383 C-22.59321707 19.88160803 -21.21372507 18.48902399 -19.83154297 17.09912109 C-17.71663056 14.96471416 -15.62397814 12.80994937 -13.53100586 10.65405273 C-12.19053283 9.30052683 -10.84877834 7.94826857 -9.50561523 6.59741211 C-8.88148239 5.94858566 -8.25734955 5.29975922 -7.61430359 4.63127136 C-3.29596924 0.35658799 -3.29596924 0.35658799 0 0 Z " fill="#236C12" transform="translate(296.525146484375,31.726806640625)"/>
<path d="M0 0 C2.31582767 0.91820906 3.58023685 1.9497586 5.35704041 3.68927002 C6.29239372 4.595914 6.29239372 4.595914 7.24664307 5.52087402 C8.23751167 6.50673492 8.23751167 6.50673492 9.24839783 7.51251221 C9.9331871 8.18731628 10.61797638 8.86212036 11.32351685 9.55737305 C12.76718937 10.98586703 14.2068227 12.41845303 15.64268494 13.85479736 C17.84754215 16.05308163 20.07525624 18.22626945 22.30503845 20.39923096 C23.70429121 21.78968401 25.10212738 23.18156439 26.49839783 24.57501221 C27.16909805 25.22415588 27.83979828 25.87329956 28.53082275 26.54211426 C32.94430388 31.02261644 32.94430388 31.02261644 33.35289001 34.33453369 C31.3753978 38.06607475 28.61875246 40.72168154 25.59996033 43.64141846 C24.95768997 44.27802902 24.31541962 44.91463959 23.65368652 45.57054138 C21.60462472 47.59725244 19.54208258 49.60959702 17.47886658 51.62188721 C16.08537613 52.99531113 14.69278679 54.36964997 13.3011322 55.74493408 C9.89156716 59.1104489 6.46984662 62.46314767 3.04136658 65.80938721 C0.04192753 64.46365834 -2.03939521 62.9740162 -4.35023499 60.64483643 C-4.99059692 60.00432343 -5.63095886 59.36381042 -6.29072571 58.70388794 C-6.9700415 58.01424957 -7.6493573 57.32461121 -8.34925842 56.61407471 C-9.05387207 55.90663116 -9.75848572 55.19918762 -10.48445129 54.4703064 C-12.73058732 52.21298859 -14.96966351 49.94881088 -17.20863342 47.68438721 C-18.7316106 46.15137767 -20.25504281 44.61882006 -21.77894592 43.08673096 C-25.51080158 39.33284148 -29.23688693 35.57329806 -32.95863342 31.80938721 C-27.59653335 25.432051 -21.90220078 19.46527981 -16.04457092 13.54522705 C-14.89500865 12.37893313 -13.7508622 11.20727842 -12.61195374 10.03057861 C-10.95553583 8.31970443 -9.28353803 6.62559145 -7.60707092 4.93438721 C-7.09969391 4.40434082 -6.59231689 3.87429443 -6.06956482 3.32818604 C-2.47885592 -0.24124047 -2.47885592 -0.24124047 0 0 Z " fill="#236C11" transform="translate(364.95863342285156,332.19061279296875)"/>
<path d="M0 0 C2.25596606 0.9468723 3.49408088 1.96997964 5.20999146 3.70770264 C5.81031189 4.30824966 6.41063232 4.90879669 7.02914429 5.52754211 C7.66471252 6.17859421 8.30028076 6.8296463 8.95510864 7.50042725 C9.6153302 8.16489365 10.27555176 8.82936005 10.95578003 9.51396179 C13.06166004 11.63662663 15.15686692 13.76948705 17.25198364 15.902771 C18.67837596 17.34421033 20.10545134 18.78497408 21.53323364 20.22503662 C25.03078958 23.75565932 28.51880929 27.29546152 32.00198364 30.840271 C30.38113711 34.28428887 28.5766212 36.44698618 25.81448364 39.090271 C23.02007379 41.81835783 20.33130824 44.54225203 17.81448364 47.527771 C12.27979101 53.99809024 6.05584351 59.86197942 0.00198364 65.840271 C-2.90345508 64.52650183 -4.96462695 63.11970608 -7.20602417 60.85931396 C-7.8063446 60.25884247 -8.40666504 59.65837097 -9.025177 59.03970337 C-9.66074524 58.39381256 -10.29631348 57.74792175 -10.95114136 57.0824585 C-11.61136292 56.41940704 -12.27158447 55.75635559 -12.95181274 55.07321167 C-15.0552946 52.95855268 -17.15170777 50.83703887 -19.24801636 48.715271 C-20.67463897 47.27861542 -22.10171707 45.84241202 -23.52926636 44.40667725 C-27.02415297 40.88976295 -30.51271698 37.36668553 -33.99801636 33.840271 C-32.69069624 30.96470835 -31.2879047 28.86923945 -29.08053589 26.61639404 C-28.49297516 26.01284592 -27.90541443 25.40929779 -27.30004883 24.78746033 C-26.35003494 23.82940239 -26.35003494 23.82940239 -25.38082886 22.85198975 C-24.40048172 21.8580999 -24.40048172 21.8580999 -23.40032959 20.84413147 C-22.01945288 19.4487709 -20.63576761 18.05618491 -19.2494812 16.66619873 C-17.12540736 14.53017545 -15.02069727 12.37621213 -12.91598511 10.22113037 C-11.57208492 8.86777201 -10.22707016 7.51551933 -8.88082886 6.16448975 C-8.25153473 5.5156633 -7.6222406 4.86683685 -6.97387695 4.198349 C-6.08307938 3.31666801 -6.08307938 3.31666801 -5.17428589 2.41717529 C-4.39723801 1.63252144 -4.39723801 1.63252144 -3.60449219 0.83201599 C-1.99801636 -0.159729 -1.99801636 -0.159729 0 0 Z " fill="#226B10" transform="translate(436.9980163574219,172.15972900390625)"/>
<path d="M0 0 C4.64695633 1.67990833 6.81541355 3.67127153 10.0625 7.4375 C13.92276896 11.81782928 17.90916654 15.90711923 22.25 19.8125 C22.75176758 20.26689453 23.25353516 20.72128906 23.77050781 21.18945312 C25.95731025 23.16640358 28.15119896 25.13534949 30.34765625 27.1015625 C30.99605469 27.70742187 31.64445312 28.31328125 32.3125 28.9375 C33.14201172 29.69353516 33.14201172 29.69353516 33.98828125 30.46484375 C35 32 35 32 34.7424469 33.89544678 C33.89506174 36.29745985 32.93748031 37.42575167 31.13256836 39.20800781 C30.53202133 39.80832825 29.9314743 40.40864868 29.31272888 41.02716064 C28.66167679 41.66272888 28.01062469 42.29829712 27.33984375 42.953125 C26.67537735 43.61334656 26.01091095 44.27356812 25.3263092 44.95379639 C23.20364437 47.0596764 21.07078395 49.15488328 18.9375 51.25 C17.49606066 52.67639232 16.05529691 54.1034677 14.61523438 55.53125 C11.08461168 59.02880594 7.54480947 62.51682565 4 66 C2.88794748 65.04744891 1.77598603 64.0947915 0.6640625 63.14208984 C0.0448291 62.61159027 -0.5744043 62.0810907 -1.21240234 61.53451538 C-7.21298672 56.38347427 -12.96293053 51.25105125 -18.0625 45.1953125 C-22.13881361 40.57658619 -26.61017749 36.31837875 -31 32 C-25.19316781 24.88094773 -18.63714556 18.52625188 -12.125 12.0625 C-10.94768362 10.89020796 -9.77059826 9.71768386 -8.59375 8.54492188 C-5.73182511 5.69393018 -2.86678543 2.84610385 0 0 Z " fill="#226B10" transform="translate(133,102)"/>
</svg>
