<?xml version="1.0" encoding="UTF-8"?>
<svg version="1.1" xmlns="http://www.w3.org/2000/svg" width="1920" height="1080">
<path d="M0 0 C633.6 0 1267.2 0 1920 0 C1920 356.4 1920 712.8 1920 1080 C1286.4 1080 652.8 1080 0 1080 C0 723.6 0 367.2 0 0 Z " fill="#FEFEFE" transform="translate(0,0)"/>
<path d="M0 0 C0.763125 0.37125 1.52625 0.7425 2.3125 1.125 C2.869375 1.41375 3.42625 1.7025 4 2 C4.99 1.34 5.98 0.68 7 0 C9.69921875 -0.1953125 9.69921875 -0.1953125 12.6875 -0.125 C14.17830078 -0.09792969 14.17830078 -0.09792969 15.69921875 -0.0703125 C16.45847656 -0.04710937 17.21773437 -0.02390625 18 0 C18.495 1.98 18.495 1.98 19 4 C18.36191406 4.13277344 17.72382812 4.26554688 17.06640625 4.40234375 C16.24011719 4.57894531 15.41382813 4.75554688 14.5625 4.9375 C13.73878906 5.11152344 12.91507813 5.28554687 12.06640625 5.46484375 C10.02338796 5.80752994 10.02338796 5.80752994 9 7 C8.57218327 11.16990664 8.57218327 11.16990664 10.3125 14.8125 C12.10476225 16.19455846 12.10476225 16.19455846 15 17 C14.73323796 15.01508358 14.73323796 15.01508358 14 13 C13.01 12.67 12.02 12.34 11 12 C10.505 10.515 10.505 10.515 10 9 C11.87643761 7.12356239 14.49805701 7.82015013 16.9921875 7.76953125 C19 8 19 8 22 10 C22.328125 12.56640625 22.328125 12.56640625 22.25 15.5625 C22.23453125 16.55378906 22.2190625 17.54507812 22.203125 18.56640625 C22 21 22 21 21 22 C14.60127495 21.96019456 8.41220815 21.70308979 3 18 C1 15 1 15 1 12 C-1.31 12.33 -3.62 12.66 -6 13 C-5.14993914 15.26716429 -5.14993914 15.26716429 -2.5 15.9375 C-1.675 16.288125 -0.85 16.63875 0 17 C0.495 18.485 0.495 18.485 1 20 C-3.21107278 21.26332183 -5.5456709 21.00441956 -9.375 19.0625 C-10.59188424 18.39025121 -11.8033603 17.70765749 -13 17 C-13 17.99 -13 18.98 -13 20 C-15.875 20.625 -15.875 20.625 -19 21 C-19.66 20.34 -20.32 19.68 -21 19 C-21.45375 19.639375 -21.9075 20.27875 -22.375 20.9375 C-26.24556697 23.97865977 -30.14967456 24.24409105 -35 24 C-37.9375 22.5 -37.9375 22.5 -40 21 C-40.99 21.33 -41.98 21.66 -43 22 C-46.93546479 22.65965886 -50.4482699 22.97771612 -53.921875 20.7890625 C-57.38901258 17.27239439 -58.35396528 14.49163509 -58.375 9.5625 C-58.27967182 8.03951886 -58.16482859 6.51703348 -58 5 C-60.64 5 -63.28 5 -66 5 C-66 5.99 -66 6.98 -66 8 C-64.35 8.33 -62.7 8.66 -61 9 C-61.33 10.32 -61.66 11.64 -62 13 C-63.32 13 -64.64 13 -66 13 C-66 14.32 -66 15.64 -66 17 C-63.69 17.33 -61.38 17.66 -59 18 C-59.33 18.99 -59.66 19.98 -60 21 C-63.58003773 22.19334591 -66.24315896 22.33543224 -70 22 C-72.85375589 19.24136931 -73.90764101 16.40686367 -74.16796875 12.44140625 C-74.17763672 11.01634766 -74.17763672 11.01634766 -74.1875 9.5625 C-74.20167969 8.61503906 -74.21585938 7.66757813 -74.23046875 6.69140625 C-73.99614518 3.95498356 -73.39701383 2.33571877 -72 0 C-69.89611431 -0.05402274 -67.79183286 -0.09280256 -65.6875 -0.125 C-63.92986328 -0.15980469 -63.92986328 -0.15980469 -62.13671875 -0.1953125 C-59 0 -59 0 -56 2 C-55.62875 1.505 -55.2575 1.01 -54.875 0.5 C-52.25305607 -1.59755514 -50.26157528 -1.21743835 -47 -1 C-47 -0.67 -47 -0.34 -47 0 C-47.94875 0.268125 -48.8975 0.53625 -49.875 0.8125 C-53.25267273 1.74986588 -53.25267273 1.74986588 -55 5 C-55 5.99 -55 6.98 -55 8 C-54.01 6.02 -53.02 4.04 -52 2 C-51.05125 2.20625 -50.1025 2.4125 -49.125 2.625 C-47.578125 2.810625 -47.578125 2.810625 -46 3 C-45.34 2.34 -44.68 1.68 -44 1 C-43.67 1.99 -43.34 2.98 -43 4 C-43.33 4.66 -43.66 5.32 -44 6 C-45.65 5.34 -47.3 4.68 -49 4 C-49 7.63 -49 11.26 -49 15 C-47.02 15.66 -45.04 16.32 -43 17 C-42.97421875 16.32453125 -42.9484375 15.6490625 -42.921875 14.953125 C-42.45839737 7.66388584 -42.45839737 7.66388584 -40.1875 4.375 C-38 3 -38 3 -34 3 C-34 2.34 -34 1.68 -34 1 C-32.4156683 1.08768248 -30.83246433 1.19587329 -29.25 1.3125 C-27.92742188 1.39951172 -27.92742188 1.39951172 -26.578125 1.48828125 C-23.67696226 2.0641181 -22.20774393 3.07596148 -20 5 C-20 4.01 -20 3.02 -20 2 C-20.66 2 -21.32 2 -22 2 C-22 1.34 -22 0.68 -22 0 C-14.59643756 -2.15376362 -7.16103746 -3.68281926 0 0 Z " fill="#313131" transform="translate(797,5)"/>
<path d="M0 0 C0.5775 0.33 1.155 0.66 1.75 1 C4.19883862 2.27075898 4.19883862 2.27075898 8 2 C8.66 1.67 9.32 1.34 10 1 C11.87379605 0.92966231 13.75001102 0.9156978 15.625 0.9375 C17.12933594 0.95103516 17.12933594 0.95103516 18.6640625 0.96484375 C19.43492187 0.97644531 20.20578125 0.98804688 21 1 C21.495 2.98 21.495 2.98 22 5 C21.04287109 5.19916016 21.04287109 5.19916016 20.06640625 5.40234375 C19.24011719 5.57894531 18.41382813 5.75554688 17.5625 5.9375 C16.73878906 6.11152344 15.91507813 6.28554687 15.06640625 6.46484375 C13.02338796 6.80752994 13.02338796 6.80752994 12 8 C11.57218327 12.16990664 11.57218327 12.16990664 13.3125 15.8125 C15.10476225 17.19455846 15.10476225 17.19455846 18 18 C17.73323796 16.01508358 17.73323796 16.01508358 17 14 C16.01 13.67 15.02 13.34 14 13 C13.67 12.01 13.34 11.02 13 10 C14.87643761 8.12356239 17.49805701 8.82015013 19.9921875 8.76953125 C22 9 22 9 25 11 C25.328125 13.56640625 25.328125 13.56640625 25.25 16.5625 C25.23453125 17.55378906 25.2190625 18.54507812 25.203125 19.56640625 C25 22 25 22 24 23 C17.60127495 22.96019456 11.41220815 22.70308979 6 19 C4 16 4 16 4 13 C2.68 13.33 1.36 13.66 0 14 C0 13.34 0 12.68 0 12 C-0.99 12.33 -1.98 12.66 -3 13 C-3 12.01 -3 11.02 -3 10 C-4.98 10 -6.96 10 -9 10 C-9.2475 9.38125 -9.495 8.7625 -9.75 8.125 C-11.20628639 5.64931313 -12.37812506 5.04874998 -15 4 C-14.67 3.67 -14.34 3.34 -14 3 C-14.66 2.34 -15.32 1.68 -16 1 C-13.72975032 0.91902676 -11.45867925 0.86082296 -9.1875 0.8125 C-7.92292969 0.77769531 -6.65835938 0.74289063 -5.35546875 0.70703125 C-2 1 -2 1 -0.05078125 2.51171875 C0.29597656 3.00285156 0.64273438 3.49398438 1 4 C0.67 2.68 0.34 1.36 0 0 Z " fill="#727272" transform="translate(794,4)"/>
<path d="M0 0 C0.474375 0.495 0.94875 0.99 1.4375 1.5 C1.1075 2.49 0.7775 3.48 0.4375 4.5 C-0.0575 3.015 -0.0575 3.015 -0.5625 1.5 C-5.1825 1.5 -9.8025 1.5 -14.5625 1.5 C-9.1175 1.995 -9.1175 1.995 -3.5625 2.5 C-3.5625 2.83 -3.5625 3.16 -3.5625 3.5 C-5.5425 3.83 -7.5225 4.16 -9.5625 4.5 C-9.5625 6.15 -9.5625 7.8 -9.5625 9.5 C-6.62158413 9.31584568 -6.62158413 9.31584568 -3.5625 8.5 C-2.12612302 6.54836882 -2.12612302 6.54836882 -1.5625 4.5 C-1.36163557 8.21599191 -1.4105563 9.27208445 -3.5625 12.5 C-1.9125 11.51 -0.2625 10.52 1.4375 9.5 C0.7775 10.82 0.1175 12.14 -0.5625 13.5 C-1.5525 13.5 -2.5425 13.5 -3.5625 13.5 C-2.71243914 15.76716429 -2.71243914 15.76716429 -0.0625 16.4375 C0.7625 16.788125 1.5875 17.13875 2.4375 17.5 C2.9325 18.985 2.9325 18.985 3.4375 20.5 C-0.77357278 21.76332183 -3.1081709 21.50441956 -6.9375 19.5625 C-8.15438424 18.89025121 -9.3658603 18.20765749 -10.5625 17.5 C-10.5625 18.49 -10.5625 19.48 -10.5625 20.5 C-13.4375 21.125 -13.4375 21.125 -16.5625 21.5 C-17.2225 20.84 -17.8825 20.18 -18.5625 19.5 C-19.01625 20.139375 -19.47 20.77875 -19.9375 21.4375 C-23.82721967 24.49370831 -27.69656326 24.70471579 -32.5625 24.5 C-35.625 23.3125 -35.625 23.3125 -37.5625 21.5 C-38.375 19.3125 -38.375 19.3125 -38.5625 17.5 C-37.9025 17.83 -37.2425 18.16 -36.5625 18.5 C-36.5625 19.16 -36.5625 19.82 -36.5625 20.5 C-33.00896071 21.6845131 -30.29236522 21.76641894 -26.5625 21.5 C-24.42173627 19.91943612 -23.67291497 18.93535044 -23.015625 16.34375 C-22.94859375 15.5703125 -22.8815625 14.796875 -22.8125 14 C-22.73515625 13.2265625 -22.6578125 12.453125 -22.578125 11.65625 C-22.44503359 9.31390957 -22.44503359 9.31390957 -23.5625 6.5 C-24.2225 7.16 -24.8825 7.82 -25.5625 8.5 C-27.60369788 6.88405168 -29.60322937 5.2143618 -31.5625 3.5 C-31.5625 2.84 -31.5625 2.18 -31.5625 1.5 C-29.9781683 1.58768248 -28.39496433 1.69587329 -26.8125 1.8125 C-25.48992188 1.89951172 -25.48992188 1.89951172 -24.140625 1.98828125 C-21.23946226 2.5641181 -19.77024393 3.57596148 -17.5625 5.5 C-17.5625 4.51 -17.5625 3.52 -17.5625 2.5 C-18.2225 2.5 -18.8825 2.5 -19.5625 2.5 C-19.5625 1.84 -19.5625 1.18 -19.5625 0.5 C-5.92383603 -3.46761134 -5.92383603 -3.46761134 0 0 Z " fill="#9A9A9A" transform="translate(794.5625,4.5)"/>
<path d="M0 0 C1.4783226 2.95664519 1.06032783 5.74229737 1 9 C1.66 6.36 2.32 3.72 3 1 C4.32 0.67 5.64 0.34 7 0 C6.484375 0.53625 5.96875 1.0725 5.4375 1.625 C3.76348516 3.97565155 3.76348516 3.97565155 3.8125 7.0625 C4.673669 10.070201 4.673669 10.070201 6.859375 11.05078125 C8.89021446 11.81054566 10.90198081 12.45518408 13 13 C12.73323796 11.01508358 12.73323796 11.01508358 12 9 C11.01 8.67 10.02 8.34 9 8 C8.67 7.01 8.34 6.02 8 5 C9.87643761 3.12356239 12.49805701 3.82015013 14.9921875 3.76953125 C17 4 17 4 20 6 C20.328125 8.56640625 20.328125 8.56640625 20.25 11.5625 C20.23453125 12.55378906 20.2190625 13.54507812 20.203125 14.56640625 C20 17 20 17 19 18 C12.72116229 17.96094036 6.18146801 17.85288647 1 14 C-1.53789033 10.39783308 -2.03999579 8.60993573 -1.75 4.1875 C-1 1 -1 1 0 0 Z " fill="#262626" transform="translate(799,9)"/>
<path d="M0 0 C3.98359946 1.98757085 6.53730336 3.7661423 8.125 8 C7.97619182 11.57139628 7.18121958 13.19557483 5 16 C2 18 2 18 -0.5 18 C-3 17 -3 17 -4.875 14.375 C-6.18099577 10.45701268 -5.8784737 7.99306227 -5 4 C-5.66 4 -6.32 4 -7 4 C-7.33 6.97 -7.66 9.94 -8 13 C-8.33 13 -8.66 13 -9 13 C-9.61989796 4.94132653 -9.61989796 4.94132653 -7.3125 1.4375 C-4.41631295 -0.36283249 -3.35456787 -0.70211886 0 0 Z " fill="#2D2D2D" transform="translate(764,8)"/>
<path d="M0 0 C1.98 0 3.96 0 6 0 C6 1.65 6 3.3 6 5 C8.94091587 4.81584568 8.94091587 4.81584568 12 4 C13.43637698 2.04836882 13.43637698 2.04836882 14 0 C14.20086443 3.71599191 14.1519437 4.77208445 12 8 C13.65 7.01 15.3 6.02 17 5 C16.34 6.32 15.68 7.64 15 9 C14.01 9 13.02 9 12 9 C12.85006086 11.26716429 12.85006086 11.26716429 15.5 11.9375 C16.325 12.288125 17.15 12.63875 18 13 C18.33 13.99 18.66 14.98 19 16 C14.78892722 17.26332183 12.4543291 17.00441956 8.625 15.0625 C7.40811576 14.39025121 6.1966397 13.70765749 5 13 C5 13.99 5 14.98 5 16 C3.0085944 16.38133299 1.00720923 16.71325582 -1 17 C-2 16 -2 16 -2.09765625 13.49609375 C-2.08605469 12.48675781 -2.07445312 11.47742188 -2.0625 10.4375 C-2.05347656 9.42558594 -2.04445313 8.41367187 -2.03515625 7.37109375 C-2.02355469 6.58863281 -2.01195312 5.80617188 -2 5 C-1.01 6.32 -0.02 7.64 1 9 C1.33 6.36 1.66 3.72 2 1 C1.34 0.67 0.68 0.34 0 0 Z " fill="#686868" transform="translate(779,9)"/>
<path d="M0 0 C1.375 2.125 1.375 2.125 2 4 C1.34 4.66 0.68 5.32 0 6 C-0.46290221 8.66242821 -0.46290221 8.66242821 -0.625 11.625 C-0.69976563 12.62789062 -0.77453125 13.63078125 -0.8515625 14.6640625 C-0.90054688 15.43492188 -0.94953125 16.20578125 -1 17 C-7.875 15.125 -7.875 15.125 -9 14 C-9.09823996 12.52351124 -9.12973519 11.04224583 -9.125 9.5625 C-9.12757813 8.75941406 -9.13015625 7.95632813 -9.1328125 7.12890625 C-9 5 -9 5 -8 3 C-5.525 3.99 -5.525 3.99 -3 5 C-3 3.68 -3 2.36 -3 1 C-3.66 1.66 -4.32 2.32 -5 3 C-6.98 2.34 -8.96 1.68 -11 1 C-11.99 4.96 -12.98 8.92 -14 13 C-14.33 13 -14.66 13 -15 13 C-15.35813217 8.43381483 -15.60240582 5.07094368 -13.3125 1 C-8.84857745 -2.86068977 -5.22580969 -2.43871119 0 0 Z " fill="#FAFAFA" transform="translate(756,6)"/>
<path d="M0 0 C0.33 0 0.66 0 1 0 C1.66 5.61 2.32 11.22 3 17 C3 16.67 3 16.34 3 16 C3 12 3 8 3 4 C3.66 4.66 4.32 5.32 5 6 C7.31765729 6.71927295 9.65095874 7.3909893 12 8 C11.67 9.32 11.34 10.64 11 12 C9.68 12 8.36 12 7 12 C7 13.32 7 14.64 7 16 C9.31 16.33 11.62 16.66 14 17 C13.67 17.99 13.34 18.98 13 20 C9.41996227 21.19334591 6.75684104 21.33543224 3 21 C0.13419052 18.22971751 -0.92859584 15.39448131 -1.1328125 11.40625 C-1.13023437 10.4471875 -1.12765625 9.488125 -1.125 8.5 C-1.12757813 7.5409375 -1.13015625 6.581875 -1.1328125 5.59375 C-1 3 -1 3 0 0 Z " fill="#343434" transform="translate(724,6)"/>
<path d="M0 0 C1.50433594 0.01353516 1.50433594 0.01353516 3.0390625 0.02734375 C3.80992187 0.03894531 4.58078125 0.05054688 5.375 0.0625 C5.705 1.3825 6.035 2.7025 6.375 4.0625 C5.41787109 4.26166016 5.41787109 4.26166016 4.44140625 4.46484375 C3.20197266 4.72974609 3.20197266 4.72974609 1.9375 5 C0.70193359 5.26103516 0.70193359 5.26103516 -0.55859375 5.52734375 C-2.60161204 5.87002994 -2.60161204 5.87002994 -3.625 7.0625 C-3.88793056 11.09410191 -3.91904844 12.62142734 -1.625 16.0625 C-4.0625 15.4375 -4.0625 15.4375 -6.625 14.0625 C-7.6954232 10.46893641 -7.81605377 8.6356613 -6.625 5.0625 C-7.285 8.0325 -7.945 11.0025 -8.625 14.0625 C-9.285 13.7325 -9.945 13.4025 -10.625 13.0625 C-10.91863808 8.07065264 -10.70336372 5.08805256 -7.625 1.0625 C-4.98041621 -0.25979189 -2.94738699 -0.03427194 0 0 Z " fill="#878787" transform="translate(809.625,4.9375)"/>
<path d="M0 0 C-0.03480469 1.01320313 -0.03480469 1.01320313 -0.0703125 2.046875 C-0.08835937 2.93890625 -0.10640625 3.8309375 -0.125 4.75 C-0.15980469 6.07257812 -0.15980469 6.07257812 -0.1953125 7.421875 C0.00860498 10.1135858 0.63448279 11.69904974 2 14 C0.35 14.66 -1.3 15.32 -3 16 C-2.67 15.01 -2.34 14.02 -2 13 C-4.31 12.67 -6.62 12.34 -9 12 C-9 10.68 -9 9.36 -9 8 C-7.68 7.67 -6.36 7.34 -5 7 C-5 6.01 -5 5.02 -5 4 C-6.32 3.67 -7.64 3.34 -9 3 C-9 2.01 -9 1.02 -9 0 C-2.25 -1.125 -2.25 -1.125 0 0 Z " fill="#DADADA" transform="translate(740,10)"/>
<path d="M0 0 C3.77524481 -0.43898196 5.59284199 -0.24783531 8.875 1.75 C12.09403956 6.67323698 11.83023052 11.28326981 11 17 C9.5 20.1875 9.5 20.1875 7 22 C2.95917651 23.32444528 0.01886968 23.41188349 -3.9375 21.8125 C-6.16229344 19.85737849 -6.69977741 18.90215168 -7 16 C-6.34 16.33 -5.68 16.66 -5 17 C-5 17.66 -5 18.32 -5 19 C-1.44646071 20.1845131 1.27013478 20.26641894 5 20 C7.14076373 18.41943612 7.88958503 17.43535044 8.546875 14.84375 C8.61390625 14.0703125 8.6809375 13.296875 8.75 12.5 C8.82734375 11.7265625 8.9046875 10.953125 8.984375 10.15625 C9.11746641 7.81390957 9.11746641 7.81390957 8 5 C7.34 5.66 6.68 6.32 6 7 C3.95880212 5.38405168 1.95927063 3.7143618 0 2 C0 1.34 0 0.68 0 0 Z " fill="#181818" transform="translate(763,6)"/>
<path d="M0 0 C1.32 0.66 2.64 1.32 4 2 C4.36923077 8.4 4.36923077 8.4 2.5 11.4375 C2.005 11.953125 1.51 12.46875 1 13 C-2.875 11.25 -2.875 11.25 -4 9 C-4.3125 6.0625 -4.3125 6.0625 -4 3 C-2 1.125 -2 1.125 0 0 Z " fill="#F5F5F5" transform="translate(766,11)"/>
<path d="M0 0 C3.3 0 6.6 0 10 0 C10.33 0.99 10.66 1.98 11 3 C11.66 3.33 12.32 3.66 13 4 C10.69 4 8.38 4 6 4 C6 4.99 6 5.98 6 7 C5.01 6.67 4.02 6.34 3 6 C2.94583812 7.60379341 2.90713362 9.20811406 2.875 10.8125 C2.84019531 12.15248047 2.84019531 12.15248047 2.8046875 13.51953125 C2.81714173 16.25402714 2.81714173 16.25402714 5 19 C3.0625 18.375 3.0625 18.375 1 17 C-0.6611948 11.6011169 -0.08975453 5.60467157 0 0 Z " fill="#5E5E5E" transform="translate(725,6)"/>
<path d="M0 0 C0 0.33 0 0.66 0 1 C-0.94875 1.268125 -1.8975 1.53625 -2.875 1.8125 C-6.25267273 2.74986588 -6.25267273 2.74986588 -8 6 C-8.67197822 10.10967735 -8.96811768 14.28302473 -6.87890625 17.98828125 C-5.38831079 19.81885197 -5.38831079 19.81885197 -3 22 C-5.85026332 21.69461464 -7.05165508 20.95551924 -9.25 19.0625 C-11.73023506 14.72208865 -11.34166406 10.88769414 -11 6 C-11.99 5.67 -12.98 5.34 -14 5 C-14.33 4.34 -14.66 3.68 -15 3 C-17.35599235 2.53248212 -17.35599235 2.53248212 -20.0625 2.375 C-20.98160156 2.30023438 -21.90070312 2.22546875 -22.84765625 2.1484375 C-23.55792969 2.09945313 -24.26820313 2.05046875 -25 2 C-25 1.67 -25 1.34 -25 1 C-22.89611431 0.94597726 -20.79183286 0.90719744 -18.6875 0.875 C-16.92986328 0.84019531 -16.92986328 0.84019531 -15.13671875 0.8046875 C-12 1 -12 1 -9 3 C-8.62875 2.505 -8.2575 2.01 -7.875 1.5 C-5.25305607 -0.59755514 -3.26157528 -0.21743835 0 0 Z " fill="#2F2F2F" transform="translate(750,4)"/>
<path d="M0 0 C0 0.99 0 1.98 0 3 C-1.32 3.33 -2.64 3.66 -4 4 C-3.14993914 6.26716429 -3.14993914 6.26716429 -0.5 6.9375 C0.7375 7.4634375 0.7375 7.4634375 2 8 C2.33 8.99 2.66 9.98 3 11 C0.07406105 11.85637238 -2.08174288 12.38673104 -4.95703125 11.17578125 C-6.67511732 10.17852152 -8.34201387 9.09427085 -10 8 C-10 6.33333333 -10 4.66666667 -10 3 C-8.72125 2.87625 -7.4425 2.7525 -6.125 2.625 C-2.65209064 2.30957601 -2.65209064 2.30957601 0 0 Z " fill="#1A1A1A" transform="translate(795,14)"/>
<path d="M0 0 C0.66 0.66 1.32 1.32 2 2 C4.31765729 2.71927295 6.65095874 3.3909893 9 4 C8.67 5.32 8.34 6.64 8 8 C6.68 8 5.36 8 4 8 C4 9.32 4 10.64 4 12 C4.66 12.33 5.32 12.66 6 13 C4.125 13.625 4.125 13.625 2 14 C0 12 0 12 -0.1953125 9.1796875 C-0.17210937 8.08914062 -0.14890625 6.99859375 -0.125 5.875 C-0.10695313 4.77929688 -0.08890625 3.68359375 -0.0703125 2.5546875 C-0.04710937 1.71164062 -0.02390625 0.86859375 0 0 Z " fill="#525252" transform="translate(727,10)"/>
<path d="M0 0 C0.66 0.33 1.32 0.66 2 1 C3.16810828 5.25086022 3.49524411 8.89159652 1.6875 12.9375 C-1.6 16.95555556 -1.6 16.95555556 -5.375 17.375 C-9 17 -9 17 -11.375 15.5625 C-13.68637594 11.91763793 -14.04131862 8.28060859 -14 4 C-13.67 3.34 -13.34 2.68 -13 2 C-12.34 2 -11.68 2 -11 2 C-11.061875 3.03125 -11.12375 4.0625 -11.1875 5.125 C-10.98864405 9.23468973 -10.05532197 11.48882496 -8 15 C-4.4552398 14.76368265 -2.58021761 14.59893431 -0.0625 12 C1.42221141 7.80787366 0.77940841 4.31022243 0 0 Z " fill="#9C9C9C" transform="translate(770,10)"/>
<path d="M0 0 C0.474375 0.495 0.94875 0.99 1.4375 1.5 C1.1075 2.49 0.7775 3.48 0.4375 4.5 C0.1075 3.51 -0.2225 2.52 -0.5625 1.5 C-5.1825 1.5 -9.8025 1.5 -14.5625 1.5 C-10.9325 1.83 -7.3025 2.16 -3.5625 2.5 C-3.5625 2.83 -3.5625 3.16 -3.5625 3.5 C-8.1825 3.83 -12.8025 4.16 -17.5625 4.5 C-17.5625 3.84 -17.5625 3.18 -17.5625 2.5 C-18.2225 2.5 -18.8825 2.5 -19.5625 2.5 C-19.5625 1.84 -19.5625 1.18 -19.5625 0.5 C-5.92383603 -3.46761134 -5.92383603 -3.46761134 0 0 Z " fill="#292929" transform="translate(794.5625,4.5)"/>
<path d="M0 0 C2.475 0.99 2.475 0.99 5 2 C5 5.63 5 9.26 5 13 C3.68 13.33 2.36 13.66 1 14 C1 11.69 1 9.38 1 7 C0.34 6.67 -0.32 6.34 -1 6 C-1 5.01 -1 4.02 -1 3 C-2.32 2.67 -3.64 2.34 -5 2 C-1.125 1 -1.125 1 0 1 C0 0.67 0 0.34 0 0 Z " fill="#919191" transform="translate(814,13)"/>
<path d="M0 0 C1.375 2.125 1.375 2.125 2 4 C1.01 4.495 1.01 4.495 0 5 C-0.99 4.34 -1.98 3.68 -3 3 C-3 2.34 -3 1.68 -3 1 C-3.66 1.66 -4.32 2.32 -5 3 C-6.98 2.34 -8.96 1.68 -11 1 C-11.99 4.96 -12.98 8.92 -14 13 C-14.33 13 -14.66 13 -15 13 C-15.35813217 8.43381483 -15.60240582 5.07094368 -13.3125 1 C-8.84857745 -2.86068977 -5.22580969 -2.43871119 0 0 Z " fill="#7E7E7E" transform="translate(756,6)"/>
<path d="M0 0 C0.99 0 1.98 0 3 0 C3 1.98 3 3.96 3 6 C5.64 6 8.28 6 11 6 C11 6.33 11 6.66 11 7 C8.36 7 5.72 7 3 7 C3.66 8.65 4.32 10.3 5 12 C4.34 12 3.68 12 3 12 C2.67 13.65 2.34 15.3 2 17 C0.68 16.67 -0.64 16.34 -2 16 C-2 12.37 -2 8.74 -2 5 C-1.01 6.32 -0.02 7.64 1 9 C1.33 6.36 1.66 3.72 2 1 C1.34 0.67 0.68 0.34 0 0 Z " fill="#090909" transform="translate(779,9)"/>
<path d="M0 0 C3.96 0 7.92 0 12 0 C12.33 1.65 12.66 3.3 13 5 C12 6 12 6 8.9375 6.0625 C7.968125 6.041875 6.99875 6.02125 6 6 C5.7525 5.38125 5.505 4.7625 5.25 4.125 C3.98960746 1.54131114 3.98960746 1.54131114 0 0 Z " fill="#EFEFEF" transform="translate(779,8)"/>
<path d="M0 0 C2.475 0.99 2.475 0.99 5 2 C4.01 2.804375 4.01 2.804375 3 3.625 C0.73961237 5.8719388 0.73961237 5.8719388 0.625 9 C0.97940814 11.83526512 1.51661563 13.58950039 3 16 C1.0625 15.625 1.0625 15.625 -1 15 C-2.60725635 11.78548731 -2.05748185 8.56387464 -2 5 C-1.34 4.67 -0.68 4.34 0 4 C0 2.68 0 1.36 0 0 Z " fill="#858585" transform="translate(762,8)"/>
<path d="M0 0 C0.66 0 1.32 0 2 0 C2.433125 0.639375 2.86625 1.27875 3.3125 1.9375 C5.42993785 4.52547959 6.76014247 4.58463365 10 5 C10.66 5.33 11.32 5.66 12 6 C12.99 4.02 13.98 2.04 15 0 C16 3 16 3 16 6 C12.79619983 8.13586678 11.98060033 8.23132175 8.3125 8.125 C7.50425781 8.10695313 6.69601562 8.08890625 5.86328125 8.0703125 C4.94095703 8.03550781 4.94095703 8.03550781 4 8 C2.66666667 5.33333333 1.33333333 2.66666667 0 0 Z " fill="#6B6B6B" transform="translate(741,19)"/>
<path d="M0 0 C0.66 0 1.32 0 2 0 C1.98839844 0.77085938 1.97679687 1.54171875 1.96484375 2.3359375 C1.95582031 3.33882812 1.94679688 4.34171875 1.9375 5.375 C1.92589844 6.37273438 1.91429687 7.37046875 1.90234375 8.3984375 C1.81993398 10.98432453 1.81993398 10.98432453 3 13 C-0.875 12.125 -0.875 12.125 -2 11 C-2.36090226 3.54135338 -2.36090226 3.54135338 0 0 Z " fill="#858585" transform="translate(746,9)"/>
<path d="M0 0 C0.99 0 1.98 0 3 0 C2.96519531 1.68029297 2.96519531 1.68029297 2.9296875 3.39453125 C2.91092763 4.86718084 2.89272766 6.33983763 2.875 7.8125 C2.85824219 8.55048828 2.84148438 9.28847656 2.82421875 10.04882812 C2.78925372 13.91246426 2.80602445 15.70903668 5 19 C3.0625 18.375 3.0625 18.375 1 17 C-0.6611948 11.6011169 -0.08975453 5.60467157 0 0 Z " fill="#EDEDED" transform="translate(725,6)"/>
<path d="M0 0 C0.98613281 0.03480469 1.97226562 0.06960937 2.98828125 0.10546875 C3.98214844 0.13253906 4.97601562 0.15960937 6 0.1875 C7.13888672 0.23970703 7.13888672 0.23970703 8.30078125 0.29296875 C8.63078125 1.61296875 8.96078125 2.93296875 9.30078125 4.29296875 C6.33078125 4.29296875 3.36078125 4.29296875 0.30078125 4.29296875 C1.29078125 3.96296875 2.28078125 3.63296875 3.30078125 3.29296875 C3.30078125 2.63296875 3.30078125 1.97296875 3.30078125 1.29296875 C0.33078125 1.95296875 -2.63921875 2.61296875 -5.69921875 3.29296875 C-2.69921875 0.29296875 -2.69921875 0.29296875 0 0 Z " fill="#3B3B3B" transform="translate(806.69921875,4.70703125)"/>
<path d="M0 0 C2.88437779 1.29299694 4.87219421 2.65941363 7 5 C6.01 5.495 6.01 5.495 5 6 C4.09656316 7.88263881 4.09656316 7.88263881 3.375 10.0625 C3.11460937 10.79597656 2.85421875 11.52945312 2.5859375 12.28515625 C2.39257812 12.85105469 2.19921875 13.41695312 2 14 C1.34 13.67 0.68 13.34 0 13 C0.33 12.01 0.66 11.02 1 10 C1.4017339 4.85056722 1.4017339 4.85056722 0 0 Z " fill="#5C5C5C" transform="translate(794,4)"/>
<path d="M0 0 C0.2475 0.639375 0.495 1.27875 0.75 1.9375 C1.81562433 4.18741541 1.81562433 4.18741541 4.125 4.75 C4.74375 4.8325 5.3625 4.915 6 5 C6 6.32 6 7.64 6 9 C3.68001641 8.60000283 2.13676576 8.09432121 0.1875 6.75 C-1 5 -1 5 -0.6875 2.3125 C-0.460625 1.549375 -0.23375 0.78625 0 0 Z " fill="#E3E3E3" transform="translate(806,13)"/>
<path d="M0 0 C0.33 0.66 0.66 1.32 1 2 C1.66 2 2.32 2 3 2 C3.35338623 4.96844435 3.5417682 7.15598218 1.88671875 9.734375 C0.64496832 11.20348819 -0.67337918 12.60704814 -2 14 C-2.66 13.67 -3.32 13.34 -4 13 C-3.525625 12.525625 -3.05125 12.05125 -2.5625 11.5625 C-0.31923904 7.88355203 -0.26260422 4.2378888 0 0 Z " fill="#7D7D7D" transform="translate(774,14)"/>
<path d="M0 0 C-0.33 0.99 -0.66 1.98 -1 3 C-3.64 3.33 -6.28 3.66 -9 4 C-8.6875 2.0625 -8.6875 2.0625 -8 0 C-4.71023192 -1.09658936 -3.28696233 -0.79953138 0 0 Z " fill="#1A1A1A" transform="translate(738,23)"/>
<path d="M0 0 C-0.33 1.65 -0.66 3.3 -1 5 C-3.64 4.34 -6.28 3.68 -9 3 C-9 2.01 -9 1.02 -9 0 C-2.25 -1.125 -2.25 -1.125 0 0 Z " fill="#F8F8F8" transform="translate(740,10)"/>
<path d="M0 0 C0.66 0 1.32 0 2 0 C1.938125 1.010625 1.87625 2.02125 1.8125 3.0625 C2.02642827 7.55499372 3.04613532 10.01085961 5 14 C3.125 13.875 3.125 13.875 1 13 C-1.29458238 8.41083524 -0.98936713 4.94683566 0 0 Z " fill="#EBEBEB" transform="translate(757,12)"/>
<path d="M0 0 C0.99 0 1.98 0 3 0 C3 1.65 3 3.3 3 5 C5.94091587 4.81584568 5.94091587 4.81584568 9 4 C10.43637698 2.04836882 10.43637698 2.04836882 11 0 C11.042721 1.66611905 11.04063832 3.33382885 11 5 C10 6 10 6 7.71484375 6.09765625 C6.34005859 6.08025391 6.34005859 6.08025391 4.9375 6.0625 C4.01839844 6.05347656 3.09929688 6.04445313 2.15234375 6.03515625 C1.44207031 6.02355469 0.73179687 6.01195312 0 6 C0 4.02 0 2.04 0 0 Z " fill="#4B4B4B" transform="translate(782,9)"/>
<path d="M0 0 C1.485 0.99 1.485 0.99 3 2 C5.0492094 2.45139459 5.0492094 2.45139459 7.1875 2.625 C8.445625 2.74875 9.70375 2.8725 11 3 C10.67 4.32 10.34 5.64 10 7 C9.01 6.67 8.02 6.34 7 6 C5.7315625 5.5978125 5.7315625 5.5978125 4.4375 5.1875 C1.63619176 3.82276009 1.05155829 2.86788625 0 0 Z " fill="#1A1A1A" transform="translate(743,19)"/>
<path d="M0 0 C0.66 0.66 1.32 1.32 2 2 C4.31765729 2.71927295 6.65095874 3.3909893 9 4 C8.67 5.32 8.34 6.64 8 8 C5.03 7.505 5.03 7.505 2 7 C2.66 6.34 3.32 5.68 4 5 C2.68 4.67 1.36 4.34 0 4 C0 2.68 0 1.36 0 0 Z " fill="#131313" transform="translate(727,10)"/>
<path d="M0 0 C0.66 0.33 1.32 0.66 2 1 C1.2884375 1.7734375 1.2884375 1.7734375 0.5625 2.5625 C-1.42809407 5.66782675 -1.65060818 8.36632504 -2 12 C-2.66 11.67 -3.32 11.34 -4 11 C-4.49230769 4.6 -4.49230769 4.6 -2 1.5625 C-1.34 1.046875 -0.68 0.53125 0 0 Z " fill="#D5D5D5" transform="translate(803,7)"/>
<path d="M0 0 C1.98 0 3.96 0 6 0 C5.67 0.66 5.34 1.32 5 2 C5.66 2.33 6.32 2.66 7 3 C6.67 4.32 6.34 5.64 6 7 C3.95880212 5.38405168 1.95927063 3.7143618 0 2 C0 1.34 0 0.68 0 0 Z " fill="#3B3B3B" transform="translate(763,6)"/>
<path d="M0 0 C1.65 0 3.3 0 5 0 C5.66 1.32 6.32 2.64 7 4 C5.02 4.33 3.04 4.66 1 5 C0.67 3.35 0.34 1.7 0 0 Z " fill="#4D4D4D" transform="translate(791,21)"/>
<path d="M0 0 C1.9955516 3.99110319 2.19546065 5.69986566 2 10 C2.66 10 3.32 10 4 10 C4 10.66 4 11.32 4 12 C2.68 11.67 1.36 11.34 0 11 C0 7.37 0 3.74 0 0 Z " fill="#191919" transform="translate(777,14)"/>
<path d="M0 0 C0.99 0.33 1.98 0.66 3 1 C3 3.31 3 5.62 3 8 C1.02 8.99 1.02 8.99 -1 10 C-0.9278125 9.36191406 -0.855625 8.72382813 -0.78125 8.06640625 C-0.6884375 7.24011719 -0.595625 6.41382813 -0.5 5.5625 C-0.4071875 4.73878906 -0.314375 3.91507813 -0.21875 3.06640625 C-0.05543721 1.5360501 -0.05543721 1.5360501 0 0 Z " fill="#C2C2C2" transform="translate(792,7)"/>
<path d="M0 0 C0.66 0.33 1.32 0.66 2 1 C1.525625 1.86625 1.05125 2.7325 0.5625 3.625 C-0.93234895 6.85387374 -1.58218313 9.49033826 -2 13 C-2.33 13 -2.66 13 -3 13 C-3.4726477 4.80743982 -3.4726477 4.80743982 -1.5 1.4375 C-0.7575 0.7259375 -0.7575 0.7259375 0 0 Z " fill="#EEEEEE" transform="translate(744,6)"/>
<path d="M0 0 C1.65 0 3.3 0 5 0 C5.33 0.66 5.66 1.32 6 2 C6.66 2.66 7.32 3.32 8 4 C4.625 4.125 4.625 4.125 1 4 C0.34 3.34 -0.32 2.68 -1 2 C-0.67 1.34 -0.34 0.68 0 0 Z " fill="#777777" transform="translate(805,6)"/>
<path d="M0 0 C4.29 0 8.58 0 13 0 C13 1.32 13 2.64 13 4 C12.34 4 11.68 4 11 4 C10.67 3.34 10.34 2.68 10 2 C7.64400765 1.53248212 7.64400765 1.53248212 4.9375 1.375 C4.01839844 1.30023438 3.09929688 1.22546875 2.15234375 1.1484375 C1.08693359 1.07496094 1.08693359 1.07496094 0 1 C0 0.67 0 0.34 0 0 Z " fill="#080808" transform="translate(725,5)"/>
<path d="M0 0 C0.33 0 0.66 0 1 0 C1.28875 1.11375 1.5775 2.2275 1.875 3.375 C2.69241329 7.00291092 2.69241329 7.00291092 5 9 C3.68 9 2.36 9 1 9 C-1.09230769 4.56923077 -1.09230769 4.56923077 -0.625 1.6875 C-0.41875 1.130625 -0.2125 0.57375 0 0 Z " fill="#3B3B3B" transform="translate(725,17)"/>
<path d="M0 0 C0.99 0 1.98 0 3 0 C3.33 1.32 3.66 2.64 4 4 C3.01 4.33 2.02 4.66 1 5 C1 4.34 1 3.68 1 3 C0.01 2.67 -0.98 2.34 -2 2 C-1.34 1.34 -0.68 0.68 0 0 Z " fill="#181818" transform="translate(759,8)"/>
<path d="M0 0 C2.88437779 1.29299694 4.87219421 2.65941363 7 5 C5.68 5.99 4.36 6.98 3 8 C2.01 5.36 1.02 2.72 0 0 Z " fill="#7C7C7C" transform="translate(794,4)"/>
</svg>
