<svg enable-background="new 0 0 1548 170" viewBox="0 0 1548 170" xmlns="http://www.w3.org/2000/svg"><path d="m641.97 0v170h110.5v-29.75h-78.2v-42.5h71.4v-28.9h-71.4v-39.1h78.2v-29.75z"/><path d="m507.7 27.45h-23.8v57.29h23.8c18.62 0 32.3-9.01 32.3-28.65 0-20.39-13.68-28.64-32.3-28.64m1.7 84.75h-25.5v57.8h-32.3v-170h57.8c36.25 0 64.6 16.42 64.6 56.1 0 39.1-28.56 56.1-64.6 56.1"/><path d="m1032.98 0v29.75h39.95v110.5h-39.95v29.75h112.2v-29.75h-39.95v-110.5h39.95v-29.75z"/><path d="m924.62 52.7c0 20.48-11.9 26.94-32.3 26.94h-27.2v-52.18h27.2c22.14 0 32.3 8.24 32.3 25.24m34 0c0-39.68-27.2-52.7-62.9-52.7h-62.9v170h32.3v-62.9h27.2c1.49 0 2.97-.03 4.44-.08l32.91 62.98h35.79l-36.51-69.72c17.76-7.89 29.67-23.05 29.67-47.58"/><path d="m1286.9 30.16 23.24 74.98h-46.49zm-21.25-30.16-56.1 170h34l11.59-37.4h63.51l11.59 37.4h34l-56.1-170z"/><path d="m1437.16 0v170h110.78v-29.75h-78.48v-140.25z"/><path d="m323.53 0-40.8 99.96-40.8-99.96h-45.9v170h30.6v-127.1l39.1 89.7h1.7 30.6 1.7l39.1-89.7v127.1h30.6v-170z"/><path d="m.06 0v29.75h39.95v110.5h-39.95v29.75h112.2v-29.75h-39.95v-110.5h39.95v-29.75z"/></svg>