<?xml version="1.0" standalone="no"?>
<!DOCTYPE svg PUBLIC "-//W3C//DTD SVG 20010904//EN"
 "http://www.w3.org/TR/2001/REC-SVG-20010904/DTD/svg10.dtd">
<svg version="1.0" xmlns="http://www.w3.org/2000/svg"
 width="1920.000000pt" height="1080.000000pt" viewBox="0 0 1920.000000 1080.000000"
 preserveAspectRatio="xMidYMid meet">

<g transform="translate(0.000000,1080.000000) scale(0.100000,-0.100000)"
fill="#000000" stroke="none">
<path d="M8665 10714 c-116 -17 -166 -27 -182 -39 -17 -13 -17 -14 2 -34 43
-43 43 -43 28 -126 -20 -113 -10 -232 21 -264 l24 -23 23 31 c17 23 22 42 20
71 l-3 40 36 -21 c20 -11 80 -41 133 -65 86 -38 99 -42 112 -29 12 12 13 18 3
27 -7 7 -12 22 -12 35 0 18 -11 29 -45 45 -25 12 -45 25 -45 28 0 3 19 12 42
20 59 21 88 66 88 139 0 71 -24 121 -70 143 -37 18 -124 29 -175 22z m119 -35
c22 -6 52 -25 68 -41 23 -25 28 -39 28 -82 0 -57 -16 -88 -58 -110 -31 -16
-97 -24 -108 -13 -4 4 5 7 20 7 15 0 32 5 39 10 7 6 24 19 40 31 39 30 39 94
-2 138 -27 28 -34 31 -93 31 -34 0 -80 -4 -100 -9 -43 -10 -51 -6 -38 20 7 13
25 19 63 22 28 2 63 4 77 5 14 1 43 -3 64 -9z m-221 -16 c-7 -2 -21 -2 -30 0
-10 3 -4 5 12 5 17 0 24 -2 18 -5z m225 -59 c27 -18 30 -69 5 -96 -13 -14 -31
-18 -94 -18 l-78 0 -3 53 c-3 49 -5 52 -33 56 -29 5 -28 5 10 11 78 14 169 11
193 -6z m-207 -152 c-18 -144 -22 -166 -32 -151 -4 8 -8 68 -8 136 -1 118 0
122 22 125 12 2 24 -1 26 -5 2 -5 -2 -52 -8 -105z m72 -19 c-34 -6 -28 -15 28
-46 54 -30 62 -46 13 -25 -67 28 -98 79 -46 77 23 -2 24 -2 5 -6z m137 -103
c8 -5 11 -10 5 -10 -5 0 -17 5 -25 10 -8 5 -10 10 -5 10 6 0 17 -5 25 -10z"/>
<path d="M7825 10681 c-100 -62 -134 -220 -73 -340 29 -56 105 -111 153 -111
62 0 91 11 109 41 28 48 17 59 -54 53 -60 -5 -62 -4 -95 30 -20 22 -36 50 -40
74 -8 50 11 125 41 157 27 29 48 27 97 -7 28 -20 57 -18 57 3 0 7 8 18 18 25
16 12 15 14 -8 39 -51 55 -147 72 -205 36z m115 -17 c22 -9 37 -20 34 -25 -2
-5 0 -19 7 -31 11 -20 9 -20 -20 5 -46 39 -82 36 -120 -10 -47 -57 -67 -184
-37 -241 20 -39 61 -71 104 -81 l37 -9 -39 -1 c-56 -1 -116 61 -140 147 -16
58 -16 67 -1 124 17 67 33 90 80 119 37 23 44 23 95 3z"/>
<path d="M7435 10667 l-30 -25 0 -134 c0 -165 6 -193 51 -242 l35 -39 73 5
c115 7 175 56 106 86 -20 9 -47 11 -83 7 -61 -8 -71 -1 -82 58 l-7 37 75 0
c81 0 93 8 81 55 -6 26 -9 27 -96 47 -32 7 -58 17 -58 23 1 25 21 33 103 37
48 2 92 9 97 14 6 6 7 24 4 41 -7 36 -17 39 -149 49 -87 6 -92 6 -120 -19z
m151 -17 c31 0 44 -4 44 -14 0 -8 6 -17 13 -20 6 -3 -26 -4 -73 -3 l-85 2 -9
-53 c-10 -60 -3 -72 47 -72 41 0 29 -23 -17 -34 l-38 -9 6 -54 c8 -67 23 -93
59 -100 29 -6 47 -23 25 -23 -7 0 -22 -3 -33 -5 -47 -12 -95 126 -95 272 0 39
5 84 10 99 10 25 13 26 57 20 25 -3 65 -6 89 -6z m47 -367 c-7 -2 -19 -2 -25
0 -7 3 -2 5 12 5 14 0 19 -2 13 -5z"/>
<path d="M9083 10671 c-100 -34 -163 -107 -163 -188 0 -43 31 -117 62 -151 36
-37 146 -85 194 -84 26 0 48 -6 55 -14 14 -17 40 -18 62 -1 12 8 19 36 25 92
15 139 -7 182 -99 191 -70 7 -92 -7 -83 -54 5 -26 11 -32 33 -32 39 0 49 -11
57 -58 l7 -42 -34 6 c-130 22 -198 98 -164 181 20 47 89 78 158 69 54 -6 80 5
70 30 -3 8 0 21 7 29 14 17 11 19 -60 34 -60 14 -66 13 -127 -8z m85 -17 c36
-10 27 -34 -13 -34 -105 0 -181 -92 -151 -182 7 -19 10 -40 8 -46 -5 -17 35
-48 81 -62 20 -6 37 -15 37 -20 0 -6 10 -11 23 -11 17 -1 18 -2 4 -6 -52 -14
-155 60 -182 132 -26 67 -14 126 35 175 49 49 105 68 158 54z m84 -175 c26
-14 53 -78 39 -92 -6 -6 -11 -29 -12 -51 0 -23 -4 -50 -9 -61 -6 -14 -8 -1 -5
40 2 33 -1 76 -7 97 -10 34 -15 38 -45 38 -22 0 -33 5 -33 14 0 8 -6 17 -12
19 -7 3 4 6 25 6 21 1 47 -4 59 -10z"/>
<path d="M8258 10653 c-47 -7 -52 -27 -16 -54 18 -14 46 -31 61 -39 38 -19 57
-58 57 -119 0 -120 -65 -180 -149 -136 -32 16 -61 77 -61 128 0 39 31 93 59
102 27 8 26 15 -5 52 -23 28 -29 30 -53 22 -117 -41 -137 -249 -35 -354 64
-66 154 -81 235 -40 117 61 143 306 42 397 -15 14 -102 52 -107 47 0 -1 -13
-4 -28 -6z m94 -66 c110 -82 62 -328 -69 -353 -82 -15 -143 14 -181 87 -20 37
-23 56 -20 121 3 65 7 81 26 100 12 13 22 17 22 10 0 -9 5 -10 18 -3 16 9 16
4 -5 -37 -20 -38 -24 -57 -19 -100 8 -89 63 -156 129 -156 40 0 110 45 126 81
18 39 26 120 13 135 -5 7 -13 30 -17 51 -7 35 -46 77 -73 77 -6 0 -14 5 -18
11 -10 16 35 1 68 -24z"/>
</g>
</svg>
