<svg viewBox="0 0 1000 750" xmlns="http://www.w3.org/2000/svg"><path d="m0 0h1000v750h-1000z" fill="#fff"/><path d="m288 0h-128-32c-17.7 0-32 14.3-32 32s14.3 32 32 32v132.8c0 11.8-3.3 23.5-9.5 33.5l-108.2 175.9c-6.7 11-10.3 23.5-10.3 36.4 0 38.3 31.1 69.4 69.4 69.4h309.2c38.3 0 69.4-31.1 69.4-69.4 0-12.8-3.6-25.4-10.3-36.4l-108.2-175.8c-6.2-10.1-9.5-21.7-9.5-33.5v-132.9c17.7 0 32-14.3 32-32s-14.3-32-32-32zm-96 196.8v-132.8h64v132.8c0 23.7 6.6 46.9 19 67.1l34.5 56.1h-171l34.5-56.1c12.4-20.2 19-43.4 19-67.1z" fill="#f0f0f0" transform="matrix(.8 0 0 .8 320.8 170.2)"/></svg>