<?xml version="1.0" encoding="UTF-8"?>
<svg version="1.1" xmlns="http://www.w3.org/2000/svg" width="1920" height="1080">
<path d="M0 0 C633.6 0 1267.2 0 1920 0 C1920 356.4 1920 712.8 1920 1080 C1286.4 1080 652.8 1080 0 1080 C0 723.6 0 367.2 0 0 Z " fill="#FEFEFE" transform="translate(0,0)"/>
<path d="M0 0 C1.9375 2.75 1.9375 2.75 3 5 C3.59167969 4.59007812 4.18335938 4.18015625 4.79296875 3.7578125 C5.97826172 2.94957031 5.97826172 2.94957031 7.1875 2.125 C7.96480469 1.59132813 8.74210938 1.05765625 9.54296875 0.5078125 C16.96956263 -4.0496839 23.22367549 -3.54676179 31.4375 -1.625 C34.55859375 -0.8515625 34.55859375 -0.8515625 37 0 C37.495 0.99 37.495 0.99 38 2 C37.34 2.33 36.68 2.66 36 3 C36.99 3.495 36.99 3.495 38 4 C38 4.66 38 5.32 38 6 C33.72509019 7.48692515 30.41131233 8.0787266 25.875 7.875 C22.19307437 7.78533362 21.20622896 7.87373737 17.9375 9.875 C15.4404681 12.61368015 15.03806672 13.50513267 14.75 17.25 C15.10072204 22.51083054 16.53752876 25.57705501 20.3125 29.25 C23.14676273 31.09556643 25.75251146 32.09372413 29 33 C28.505 29.04 28.505 29.04 28 25 C25.36 24.34 22.72 23.68 20 23 C19.375 19.625 19.375 19.625 19 16 C21 14 21 14 23.06640625 13.734375 C37.11987783 13.82234665 37.11987783 13.82234665 42.5625 17.9375 C45.84799613 24.93703524 43.97720144 33.54883901 43 41 C42.01 41 41.02 41 40 41 C40 41.66 40 42.32 40 43 C38.37675914 43.22162329 36.751279 43.42689803 35.125 43.625 C34.22007812 43.74101563 33.31515625 43.85703125 32.3828125 43.9765625 C31.20332031 43.98816406 31.20332031 43.98816406 30 44 C29.34 43.34 28.68 42.68 28 42 C25.50489991 41.61071736 25.50489991 41.61071736 22.6875 41.5 C18.69754022 41.28226686 15.65089228 40.6492191 12 39 C12 38.34 12 37.68 12 37 C11.113125 36.79375 10.22625 36.5875 9.3125 36.375 C5.3673622 34.73739563 3.15749096 32.60667356 1 29 C0.09515008 26.66051755 -0.45829372 24.46230129 -1 22 C-2.1446875 22.680625 -2.1446875 22.680625 -3.3125 23.375 C-7.89672653 25.70577542 -12.9658162 26.23860209 -18 27 C-17.30132813 27.30292969 -16.60265625 27.60585938 -15.8828125 27.91796875 C-14.51769531 28.54638672 -14.51769531 28.54638672 -13.125 29.1875 C-12.22007812 29.59355469 -11.31515625 29.99960937 -10.3828125 30.41796875 C-7.47393886 32.3492701 -6.88145585 33.66161263 -6 37 C-6 38.32 -6 39.64 -6 41 C-11.62631926 40.48053489 -15.89709576 38.93544322 -20.9375 36.4375 C-21.62134766 36.10814453 -22.30519531 35.77878906 -23.00976562 35.43945312 C-24.67731871 34.63482961 -26.33926839 33.8186103 -28 33 C-28.33 35.31 -28.66 37.62 -29 40 C-30.36125 39.9071875 -30.36125 39.9071875 -31.75 39.8125 C-35.28982642 40.01672076 -36.44931155 40.64551835 -39 43 C-41.40072955 40.11912454 -43.47291037 37.43595166 -45 34 C-45.5259375 35.36125 -45.5259375 35.36125 -46.0625 36.75 C-49.6690214 42.79964879 -55.92280211 44.67973764 -62.45703125 46.44921875 C-68.70937439 47.80341289 -73.12480883 47.90972119 -78.75 44.5625 C-84.2812809 40.4913999 -87.73909744 34.75843775 -89 28 C-89.91601893 15.35189253 -89.91601893 15.35189253 -86 10 C-83.41924196 7.28575448 -80.86470654 5.32175127 -77.3125 4 C-75 4 -75 4 -73.1875 5.4375 C-72.795625 5.953125 -72.40375 6.46875 -72 7 C-72 5.02 -72 3.04 -72 1 C-63.67150002 -0.50186065 -56.33062984 0.23576819 -49.0625 4.875 C-46.86613479 7.13792174 -44.89186619 9.47751175 -43 12 C-42.34 10.02 -41.68 8.04 -41 6 C-41.66 6 -42.32 6 -43 6 C-45.1875 4.25 -45.1875 4.25 -47 2 C-47 -0.125 -47 -0.125 -46 -2 C-34.3367781 -9.550105 -11.04897859 -7.89212756 0 0 Z " fill="#171717" transform="translate(894,14)"/>
<path d="M0 0 C3.55330284 1.87355968 6.31744136 4.01937929 9 7 C7.56 12.64 7.56 12.64 5.25 14.125 C3 14 3 14 0.125 12.0625 C-3.33047943 9.78188358 -4.95977399 9.61521657 -9 10 C-11.95718847 17.29439823 -13.78736029 24.39755809 -10.625 32 C-9.1775667 35.01241348 -9.1775667 35.01241348 -7 37 C-3.64255888 37.24377883 -3.64255888 37.24377883 0.125 37.125 C1.40632812 37.10695312 2.68765625 37.08890625 4.0078125 37.0703125 C4.99523437 37.04710937 5.98265625 37.02390625 7 37 C7.64453125 38.83203125 7.64453125 38.83203125 8 41 C3.14555581 46.64165136 3.14555581 46.64165136 -0.84765625 47.30859375 C-6.7463437 47.6519036 -10.31543648 46.28202079 -15.0546875 42.78125 C-17.98475116 40.09830014 -19.35341244 37.62249264 -21 34 C-21.35707031 33.2265625 -21.71414063 32.453125 -22.08203125 31.65625 C-23.12272127 28.64489165 -23.26637173 26.24270908 -23.25 23.0625 C-23.25515625 22.06347656 -23.2603125 21.06445312 -23.265625 20.03515625 C-23 17 -23 17 -21 11 C-26.94 11 -32.88 11 -39 11 C-39 13.31 -39 15.62 -39 18 C-38.41992188 18.04898437 -37.83984375 18.09796875 -37.2421875 18.1484375 C-32.56076908 18.59649405 -28.42514541 19.298021 -24 21 C-24 22.98 -24 24.96 -24 27 C-29.05002222 28.03590199 -33.87416389 28.10251672 -39 28 C-38.67 30.64 -38.34 33.28 -38 36 C-35.03 36.33 -32.06 36.66 -29 37 C-29 37.66 -29 38.32 -29 39 C-27.68 39.33 -26.36 39.66 -25 40 C-25 40.99 -25 41.98 -25 43 C-28.53982511 45.70692509 -31.60625278 46.58549555 -36 47 C-36.80179688 47.07605469 -37.60359375 47.15210938 -38.4296875 47.23046875 C-45.21295379 47.6028439 -45.21295379 47.6028439 -48.9375 44.75 C-49.618125 43.8425 -50.29875 42.935 -51 42 C-51.86625 41.0409375 -51.86625 41.0409375 -52.75 40.0625 C-56.15053748 34.45161315 -55.18350552 26.78473054 -55.1875 20.4375 C-55.19974609 19.40947266 -55.21199219 18.38144531 -55.22460938 17.32226562 C-55.22654297 16.32775391 -55.22847656 15.33324219 -55.23046875 14.30859375 C-55.23457764 13.40939209 -55.23868652 12.51019043 -55.24291992 11.58374023 C-54.86737349 7.58936048 -53.84237405 4.84237405 -51 2 C-49.00390625 1.74121094 -49.00390625 1.74121094 -46.5625 1.734375 C-45.66660156 1.73179688 -44.77070312 1.72921875 -43.84765625 1.7265625 C-42.43806641 1.73816406 -42.43806641 1.73816406 -41 1.75 C-40.09121094 1.74226562 -39.18242188 1.73453125 -38.24609375 1.7265625 C-31.95028064 1.74447377 -26.12122237 2.54272417 -20 4 C-20 4.99 -20 5.98 -20 7 C-19.34 7.33 -18.68 7.66 -18 8 C-17.79375 7.4225 -17.5875 6.845 -17.375 6.25 C-13.35871718 -0.32209917 -7.0645597 -1.16019598 0 0 Z " fill="#111111" transform="translate(795,10)"/>
<path d="M0 0 C4.06070376 2.59193857 8.05713095 6.1598262 9.61694336 10.85839844 C10.04428892 13.24761147 10.01866431 15.3431519 9.87890625 17.765625 C9.83056641 18.65507813 9.78222656 19.54453125 9.73242188 20.4609375 C9.67634766 21.38132812 9.62027344 22.30171875 9.5625 23.25 C9.51029297 24.18585937 9.45808594 25.12171875 9.40429688 26.0859375 C9.27493175 28.39098887 9.13997966 30.69557289 9 33 C8.34 32.34 7.68 31.68 7 31 C6.4740625 32.36125 6.4740625 32.36125 5.9375 33.75 C2.3309786 39.79964879 -3.92280211 41.67973764 -10.45703125 43.44921875 C-16.70937439 44.80341289 -21.12480883 44.90972119 -26.75 41.5625 C-32.2812809 37.4913999 -35.73909744 31.75843775 -37 25 C-37.91601893 12.35189253 -37.91601893 12.35189253 -34 7 C-31.41924196 4.28575448 -28.86470654 2.32175127 -25.3125 1 C-23 1 -23 1 -21.1875 2.4375 C-20.795625 2.953125 -20.40375 3.46875 -20 4 C-20 2.02 -20 0.04 -20 -2 C-13.136277 -4.28790767 -6.62143248 -2.36913639 0 0 Z " fill="#1C1C1C" transform="translate(842,17)"/>
<path d="M0 0 C3.1574723 3.1574723 3.22506976 6.2096885 3.375 10.5 C3.11699164 17.88300836 3.11699164 17.88300836 0 21 C-5.47201236 23.78400629 -9.80472217 24.29080238 -15.8984375 24.0078125 C-18.05939082 23.84197229 -18.05939082 23.84197229 -20 25 C-18.90300781 25.51949219 -17.80601562 26.03898437 -16.67578125 26.57421875 C-15.22109057 27.27810134 -13.76667807 27.98255902 -12.3125 28.6875 C-11.59126953 29.02716797 -10.87003906 29.36683594 -10.12695312 29.71679688 C-5.57597678 31.94033326 -2.36784318 34.20702474 1 38 C0.67 38.99 0.34 39.98 0 41 C-6.7186905 39.00386732 -12.80734808 36.2708579 -19 33 C-19.33 35.31 -19.66 37.62 -20 40 C-21.98 39.67 -23.96 39.34 -26 39 C-26.33 35.37 -26.66 31.74 -27 28 C-27.66 30.97 -28.32 33.94 -29 37 C-31 35 -31 35 -31.22705078 32.47802734 C-31.21657715 31.4411377 -31.20610352 30.40424805 -31.1953125 29.3359375 C-31.18886719 28.21445312 -31.18242188 27.09296875 -31.17578125 25.9375 C-31.15902344 24.761875 -31.14226563 23.58625 -31.125 22.375 C-31.11597656 21.19164063 -31.10695313 20.00828125 -31.09765625 18.7890625 C-31.07402812 15.85917477 -31.04108514 12.9296866 -31 10 C-29.02 9.34 -27.04 8.68 -25 8 C-26.32 7.34 -27.64 6.68 -29 6 C-29 5.67 -29 5.34 -29 5 C-27.35 4.67 -25.7 4.34 -24 4 C-25.32 3.67 -26.64 3.34 -28 3 C-28 2.01 -28 1.02 -28 0 C-29.65 0 -31.3 0 -33 0 C-33 -0.33 -33 -0.66 -33 -1 C-9.38654015 -4.86088687 -9.38654015 -4.86088687 0 0 Z " fill="#0C0C0C" transform="translate(885,14)"/>
<path d="M0 0 C6.12352138 0.36741128 8.78651436 1.78651436 13 6 C13 6.66 13 7.32 13 8 C12.01 8.495 12.01 8.495 11 9 C10.61250787 11.32495277 10.28241883 13.6599583 10 16 C9.67 16.99 9.34 17.98 9 19 C8.40897149 26.56971128 9.02983101 32.99888737 12 40 C11.34 40 10.68 40 10 40 C10 40.99 10 41.98 10 43 C6.86501708 44.85776765 4.62528568 45.20140476 1 45 C1.66 44.236875 2.32 43.47375 3 42.6875 C5.29850538 40.15722061 5.29850538 40.15722061 5 37 C3.57107422 37.10441406 3.57107422 37.10441406 2.11328125 37.2109375 C-7.91832172 37.64395633 -7.91832172 37.64395633 -11.0078125 35.8046875 C-15.03875512 31.00134869 -15.35741164 25.61837288 -15.27734375 19.61328125 C-14.84263945 15.51726468 -13.65967073 12.17682893 -11 9 C-8.125 7.75 -8.125 7.75 -5 8 C-1.8125 9.9375 -1.8125 9.9375 1 12 C1.99 12 2.98 12 4 12 C4.66 10.02 5.32 8.04 6 6 C5.01 5.195625 4.02 4.39125 3 3.5625 C2.01 2.716875 1.02 1.87125 0 1 C0 0.67 0 0.34 0 0 Z " fill="#FCFCFC" transform="translate(797,11)"/>
<path d="M0 0 C2.75141192 -0.24905022 5.25669812 -0.32673572 8 -0.25 C9.10601563 -0.24226562 9.10601563 -0.24226562 10.234375 -0.234375 C15.69055451 -0.15472274 15.69055451 -0.15472274 18 1 C18 1.99 18 2.98 18 4 C18.99 4.33 19.98 4.66 21 5 C15.06 5 9.12 5 3 5 C3 7.97 3 10.94 3 14 C3.66 14 4.32 14 5 14 C5 12.02 5 10.04 5 8 C6.98 8 8.96 8 11 8 C11 9.98 11 11.96 11 14 C11.58007812 14.04898437 12.16015625 14.09796875 12.7578125 14.1484375 C17.43923092 14.59649405 21.57485459 15.298021 26 17 C26 18.98 26 20.96 26 23 C20.94997778 24.03590199 16.12583611 24.10251672 11 24 C11.103125 25.27875 11.20625 26.5575 11.3125 27.875 C11.37050781 28.59429687 11.42851563 29.31359375 11.48828125 30.0546875 C11.87393036 32.39519216 11.87393036 32.39519216 15 34 C13.68 34.66 12.36 35.32 11 36 C14.63 36.33 18.26 36.66 22 37 C22 37.33 22 37.66 22 38 C16.39 38.66 10.78 39.32 5 40 C-1.09068381 30.86397429 -2.25947584 22.72485686 -2.3125 11.9375 C-2.31797852 11.10387939 -2.32345703 10.27025879 -2.32910156 9.41137695 C-2.25752862 3.38629294 -2.25752862 3.38629294 0 0 Z " fill="#181818" transform="translate(745,14)"/>
<path d="M0 0 C4.6929741 4.81029845 5.35141847 8.99848996 5.28515625 15.4921875 C4.7689597 20.03188864 2.36767493 22.67948627 -0.8125 25.75 C-3.74312419 27.42464239 -6.73877786 28.18469447 -10 29 C-9.30132813 29.30292969 -8.60265625 29.60585938 -7.8828125 29.91796875 C-6.51769531 30.54638672 -6.51769531 30.54638672 -5.125 31.1875 C-4.22007812 31.59355469 -3.31515625 31.99960937 -2.3828125 32.41796875 C0.52606114 34.3492701 1.11854415 35.66161263 2 39 C2 40.32 2 41.64 2 43 C1.01 43 0.02 43 -1 43 C-1.144375 42.401875 -1.28875 41.80375 -1.4375 41.1875 C-1.8872439 39.43849596 -2.42892341 37.71322977 -3 36 C-4.76498717 35.18825807 -4.76498717 35.18825807 -6.9375 34.6875 C-12.51909646 33.01840524 -17.13091572 30.14101679 -22 27 C-18.7062474 24.80416494 -18.06156877 24.83296518 -14.3125 25.0625 C-9.11863273 25.16135838 -5.65589429 24.32794714 -1 22 C1.12250876 18.88514948 1.27040052 16.21289409 1.25 12.5 C1.25515625 11.5615625 1.2603125 10.623125 1.265625 9.65625 C0.98878207 6.88782066 0.55779042 5.29355463 -1 3 C-9.96924197 -1.56615955 -19.30955753 -0.2708777 -29 1 C-29 2.32 -29 3.64 -29 5 C-27.35 4.67 -25.7 4.34 -24 4 C-24 4.99 -24 5.98 -24 7 C-24.99 7.66 -25.98 8.32 -27 9 C-26.67 10.32 -26.34 11.64 -26 13 C-27.98 12.67 -29.96 12.34 -32 12 C-31.67 20.25 -31.34 28.5 -31 37 C-30.01 34.36 -29.02 31.72 -28 29 C-27.67 29 -27.34 29 -27 29 C-25.27892377 38.73004484 -25.27892377 38.73004484 -27.046875 41.84375 C-28.4375 43.1875 -28.4375 43.1875 -31 45 C-33.39097939 42.78385507 -34.8504252 40.95530323 -35.36230469 37.68603516 C-35.4671167 34.8856866 -35.44630016 32.11384595 -35.375 29.3125 C-35.37371094 28.36955078 -35.37242187 27.42660156 -35.37109375 26.45507812 C-35.2925492 20.10606019 -34.46374658 14.17418076 -33 8 C-33.66 8 -34.32 8 -35 8 C-37.1875 6.25 -37.1875 6.25 -39 4 C-39 1.875 -39 1.875 -38 0 C-28.26189349 -6.30389504 -9.67241385 -6.11928223 0 0 Z " fill="#0A0A0A" transform="translate(886,12)"/>
<path d="M0 0 C0.33 1.32 0.66 2.64 1 4 C1.66 4 2.32 4 3 4 C3 5.32 3 6.64 3 8 C0.5625 9.625 0.5625 9.625 -2 11 C-3.96140327 14.92280655 -3.35060622 19.71414119 -3 24 C-1.66792442 27.45128672 -0.59003919 29.40996081 2 32 C5.05543769 32.56036019 7.94301486 32.54394753 11 32 C15.50261917 27.83507726 16.11803567 23.71752616 16.5625 17.8125 C16.64628906 16.72582031 16.73007812 15.63914062 16.81640625 14.51953125 C16.90728516 13.27236328 16.90728516 13.27236328 17 12 C17.66 12 18.32 12 19 12 C19 12.99 19 13.98 19 15 C19.66 15 20.32 15 21 15 C21.3109226 20.80388846 21.21561853 25.97291636 18 31 C14.42128882 34.32884621 11.14614487 35.84459053 6.3125 36.5 C1.87501019 35.83019022 -0.64280744 34.45772534 -3.6875 31.1875 C-6.95836006 25.73606657 -7.76828983 20.24653037 -7 14 C-5.5 10.4375 -5.5 10.4375 -4 8 C-5.32 8 -6.64 8 -8 8 C-11.64885833 13.47328749 -10.73429409 21.24247944 -9.5 27.55859375 C-7.64934934 33.12106079 -4.60418978 35.52194634 0.3125 38.3125 C5.02385948 39.51773149 9.41212116 38.52929295 14 37 C19.49536547 31.91678694 20.56946425 26.18756987 22 19 C22.66 19 23.32 19 24 19 C24 18.01 24 17.02 24 16 C24.66 16 25.32 16 26 16 C27.01383537 24.48617754 24.85784221 30.98900938 20 38 C15.31108475 42.08548945 9.57407094 43.49774545 3.4765625 43.3984375 C-2.08923832 42.5029932 -6.37455299 39.24079481 -9.640625 34.73828125 C-13.96387254 27.22229055 -14.62526124 20.62628933 -14 12 C-12.26384225 6.69507354 -9.3547618 4.24290772 -5 1 C-3 0 -3 0 0 0 Z " fill="#141414" transform="translate(819,18)"/>
<path d="M0 0 C0.84385254 0.00410889 1.68770508 0.00821777 2.55712891 0.01245117 C3.94158203 0.01535156 3.94158203 0.01535156 5.35400391 0.01831055 C6.32080078 0.03055664 7.28759766 0.04280273 8.28369141 0.05541992 C9.24275391 0.05606445 10.20181641 0.05670898 11.18994141 0.05737305 C18.977444 0.10618051 18.977444 0.10618051 22.90869141 1.24291992 C23.56869141 3.55291992 24.22869141 5.86291992 24.90869141 8.24291992 C23.32465617 9.82695516 21.6315276 9.46266927 19.43603516 9.55932617 C18.53691406 9.6012207 17.63779297 9.64311523 16.71142578 9.6862793 C15.29313477 9.74525391 15.29313477 9.74525391 13.84619141 9.80541992 C12.89679687 9.84860352 11.94740234 9.89178711 10.96923828 9.9362793 C8.61587787 10.04271268 6.26240786 10.14473001 3.90869141 10.24291992 C3.90869141 12.22291992 3.90869141 14.20291992 3.90869141 16.24291992 C3.24869141 16.24291992 2.58869141 16.24291992 1.90869141 16.24291992 C1.90869141 13.27291992 1.90869141 10.30291992 1.90869141 7.24291992 C6.85869141 6.91291992 11.80869141 6.58291992 16.90869141 6.24291992 C16.90869141 5.25291992 16.90869141 4.26291992 16.90869141 3.24291992 C10.96869141 3.24291992 5.02869141 3.24291992 -1.09130859 3.24291992 C-5.02849877 11.11730028 -2.24145808 25.80189404 -0.04052734 33.89526367 C0.96108321 36.37249799 2.28556856 38.13786144 3.90869141 40.24291992 C3.90869141 40.90291992 3.90869141 41.56291992 3.90869141 42.24291992 C7.86869141 41.58291992 11.82869141 40.92291992 15.90869141 40.24291992 C13.26869141 39.58291992 10.62869141 38.92291992 7.90869141 38.24291992 C10.40375102 35.74786031 11.58198029 35.88343616 15.03369141 35.61791992 C15.94376953 35.5431543 16.85384766 35.46838867 17.79150391 35.39135742 C18.49017578 35.34237305 19.18884766 35.29338867 19.90869141 35.24291992 C19.90869141 35.90291992 19.90869141 36.56291992 19.90869141 37.24291992 C21.22869141 37.57291992 22.54869141 37.90291992 23.90869141 38.24291992 C23.90869141 39.23291992 23.90869141 40.22291992 23.90869141 41.24291992 C20.36886629 43.94984501 17.30243862 44.82841547 12.90869141 45.24291992 C12.10689453 45.31897461 11.30509766 45.3950293 10.47900391 45.47338867 C3.69573761 45.84576382 3.69573761 45.84576382 -0.02880859 42.99291992 C-0.70943359 42.08541992 -1.39005859 41.17791992 -2.09130859 40.24291992 C-2.95755859 39.28385742 -2.95755859 39.28385742 -3.84130859 38.30541992 C-7.24184608 32.69453307 -6.27481411 25.02765046 -6.27880859 18.68041992 C-6.29105469 17.65239258 -6.30330078 16.62436523 -6.31591797 15.56518555 C-6.31785156 14.57067383 -6.31978516 13.57616211 -6.32177734 12.55151367 C-6.32588623 11.65231201 -6.32999512 10.75311035 -6.33422852 9.82666016 C-5.93815642 5.6139657 -4.83096739 0.56115019 0 0 Z " fill="#121212" transform="translate(746.09130859375,11.757080078125)"/>
<path d="M0 0 C1.17046875 0.01804687 2.3409375 0.03609375 3.546875 0.0546875 C4.88492188 0.08949219 4.88492188 0.08949219 6.25 0.125 C6.58 0.785 6.91 1.445 7.25 2.125 C6.57453125 2.21136719 5.8990625 2.29773438 5.203125 2.38671875 C-0.53581017 3.27868326 -0.53581017 3.27868326 -5.375 6.3125 C-7.13676296 9.91610605 -7.23819174 12.1497244 -6.75 16.125 C-5.00615027 20.80585979 -2.93025185 23.40297554 1.25 26.125 C4.42921787 27.38056887 4.42921787 27.38056887 7.25 28.125 C6.92 25.485 6.59 22.845 6.25 20.125 C3.61 19.465 0.97 18.805 -1.75 18.125 C-2.08 15.815 -2.41 13.505 -2.75 11.125 C-0.275 12.115 -0.275 12.115 2.25 13.125 C2.25 14.115 2.25 15.105 2.25 16.125 C3.673125 16.0321875 3.673125 16.0321875 5.125 15.9375 C6.15625 15.999375 7.1875 16.06125 8.25 16.125 C10.67130331 19.75695496 10.46022785 21.50849348 10.375 25.8125 C10.35695313 26.99199219 10.33890625 28.17148437 10.3203125 29.38671875 C10.29710937 30.29035156 10.27390625 31.19398437 10.25 32.125 C8.35333474 32.03727545 6.45761007 31.92908699 4.5625 31.8125 C3.50675781 31.75449219 2.45101562 31.69648437 1.36328125 31.63671875 C-2.00859053 31.08249641 -3.93581597 30.0091955 -6.75 28.125 C-7.61625 27.795 -8.4825 27.465 -9.375 27.125 C-11.88807868 26.06686161 -13.13322807 25.30764211 -14.75 23.125 C-16.30574302 18.45777094 -16.44817882 12.97346402 -15.75 8.125 C-12.2623872 1.30322936 -7.18673694 -0.14373474 0 0 Z " fill="#070707" transform="translate(915.75,18.875)"/>
<path d="M0 0 C2.62308842 1.67586204 3.14235173 2.56746025 4.25 5.4375 C5.08654385 13.23799983 4.45612099 18.91978406 -0.125 25.375 C-1.75 26.4375 -1.75 26.4375 -4.1875 26.5 C-6.95718658 25.35159337 -8.47020074 24.17066881 -10.02734375 21.5859375 C-11.80354848 16.30532885 -11.84568404 9.38625336 -9.90234375 4.15625 C-7.49770016 0.56966295 -4.17031793 -0.85301958 0 0 Z " fill="#FAFAFA" transform="translate(831.75,24.5625)"/>
<path d="M0 0 C3.1574723 3.1574723 3.22506976 6.2096885 3.375 10.5 C3.11699164 17.88300836 3.11699164 17.88300836 0 21 C-5.47201236 23.78400629 -9.80472217 24.29080238 -15.8984375 24.0078125 C-18.05939082 23.84197229 -18.05939082 23.84197229 -20 25 C-18.87980469 25.54269531 -17.75960937 26.08539063 -16.60546875 26.64453125 C-15.13265508 27.36686662 -13.66000746 28.08954062 -12.1875 28.8125 C-11.44951172 29.16892578 -10.71152344 29.52535156 -9.95117188 29.89257812 C-9.23896484 30.24384766 -8.52675781 30.59511719 -7.79296875 30.95703125 C-7.1383667 31.27647705 -6.48376465 31.59592285 -5.80932617 31.92504883 C-3.88382936 33.06901894 -2.51164489 34.35744135 -1 36 C-5.3677722 36 -8.59510214 34.08836594 -12.5 32.25 C-13.65822266 31.72792969 -13.65822266 31.72792969 -14.83984375 31.1953125 C-22.23994719 27.7325258 -22.23994719 27.7325258 -24 24 C-23.67 23.01 -23.34 22.02 -23 21 C-21.98679687 20.97421875 -20.97359375 20.9484375 -19.9296875 20.921875 C-18.57808403 20.86555819 -17.22652319 20.80821167 -15.875 20.75 C-15.20984375 20.73582031 -14.5446875 20.72164062 -13.859375 20.70703125 C-8.85537889 20.46173732 -5.76632419 19.30419852 -2 16 C-1.13769155 13.80829247 -1.13769155 13.80829247 -1.375 11.5 C-1.38273438 10.7471875 -1.39046875 9.994375 -1.3984375 9.21875 C-2.29715668 5.90399356 -3.07919836 4.90151896 -6 3 C-9.76127836 2.50822918 -13.46516396 2.62511962 -17.25 2.75 C-18.796875 2.77707031 -18.796875 2.77707031 -20.375 2.8046875 C-22.91761064 2.85177288 -25.45833162 2.9175195 -28 3 C-28 2.01 -28 1.02 -28 0 C-29.65 0 -31.3 0 -33 0 C-33 -0.33 -33 -0.66 -33 -1 C-9.38654015 -4.86088687 -9.38654015 -4.86088687 0 0 Z " fill="#7F7F7F" transform="translate(885,14)"/>
<path d="M0 0 C6.95638946 -0.40133016 13.40509232 0.6996962 20 3 C20.495 3.99 20.495 3.99 21 5 C20.34 5.33 19.68 5.66 19 6 C19.66 6.33 20.32 6.66 21 7 C21 7.66 21 8.32 21 9 C16.8803623 10.29243536 13.33168317 11.26252625 9 11 C9.66 10.34 10.32 9.68 11 9 C2.30907664 8.15990478 2.30907664 8.15990478 -5.6875 10.8125 C-8.15358192 13.14528019 -9.86152278 14.81683431 -10.265625 18.26953125 C-10.30359816 26.86825074 -10.30359816 26.86825074 -6 34 C-4.66587276 34.5702098 -3.30834833 35.08730575 -1.9375 35.5625 C1.90277778 36.90277778 1.90277778 36.90277778 3 38 C5.32817964 38.36760731 7.6618385 38.70241581 10 39 C10 39.33 10 39.66 10 40 C3.40107139 40.54991072 -1.53952135 39.92004888 -7 36 C-11.04124602 32.29925808 -14.03123525 28.48966694 -15 23 C-15.13039505 18.02053894 -14.92531555 13.57922408 -11.75 9.5625 C-5.7804878 4 -5.7804878 4 -1 4 C-0.67 2.68 -0.34 1.36 0 0 Z " fill="#1F1F1F" transform="translate(911,11)"/>
<path d="M0 0 C3.55330284 1.87355968 6.31744136 4.01937929 9 7 C7.56 12.64 7.56 12.64 5.25 14.125 C3 14 3 14 0.125 12.0625 C-3.33047943 9.78188358 -4.95977399 9.61521657 -9 10 C-11.95718847 17.29439823 -13.78736029 24.39755809 -10.625 32 C-9.1775667 35.01241348 -9.1775667 35.01241348 -7 37 C-4.85573717 37.20496073 -4.85573717 37.20496073 -2.5 37.0625 C1.80362538 36.90181269 1.80362538 36.90181269 4 38 C3.67 38.99 3.34 39.98 3 41 C-0.50147041 42.1671568 -3.32670036 42.13357453 -7 42 C-7.66 41.67 -8.32 41.34 -9 41 C-9 40.34 -9 39.68 -9 39 C-9.598125 38.773125 -10.19625 38.54625 -10.8125 38.3125 C-13.67196782 36.59681931 -14.52357726 34.98187627 -16 32 C-17.13089011 24.1347102 -16.42894791 16.70834129 -12 10 C-9.625 7.375 -9.625 7.375 -7 6 C-3.18976311 6.15551987 -0.28969244 7.10210051 3 9 C2.88693303 7.04105639 2.88693303 7.04105639 2 5 C-2.32595938 2.52802321 -6.57303462 2.48905992 -11.375 3.5 C-12.179375 3.7475 -12.179375 3.7475 -13 4 C-12.67 3.01 -12.34 2.02 -12 1 C-8.29273244 -0.85363378 -4.04595205 -0.45990853 0 0 Z " fill="#0F0F0F" transform="translate(795,10)"/>
<path d="M0 0 C3 1 3 1 4.625 3.5625 C7.94974029 11.87435073 6.99789159 18.67252336 4 27 C2.515625 29.359375 2.515625 29.359375 1 31 C0.34 31 -0.32 31 -1 31 C-1.33 31.99 -1.66 32.98 -2 34 C-8.10469535 36.39399818 -12.13126099 36.1474956 -18.125 33.75 C-23.38207807 30.55003944 -25.37207112 26.80512512 -27 21 C-28.25456027 9.25995701 -28.25456027 9.25995701 -25.87890625 4.98046875 C-24.5 3.625 -24.5 3.625 -22 2 C-21.01 2.66 -20.02 3.32 -19 4 C-19.495 4.804375 -19.99 5.60875 -20.5 6.4375 C-23.07794587 12.56012145 -22.77093653 17.72890867 -20.3125 23.875 C-18.47957846 27.5472519 -17.00730275 29.60210369 -13 31 C-8.12312134 31.63218797 -4.60561449 30.9999877 -0.5078125 28.390625 C4.15653847 24.08878835 4.46814095 16.95682136 5 11 C4.34 11 3.68 11 3 11 C2.01 7.37 1.02 3.74 0 0 Z " fill="#F3F3F3" transform="translate(835,22)"/>
<path d="M0 0 C1.29164063 -0.02578125 2.58328125 -0.0515625 3.9140625 -0.078125 C7.51562797 0.26333267 8.94432985 0.61375078 11.375 3.25 C11.875 6.75 11.875 6.75 11.375 10.25 C8.86833174 13.02154816 7.23571959 13.26831901 3.484375 13.76171875 C2.03188364 13.83434332 0.57861121 13.89255619 -0.875 13.9375 C-1.62007812 13.97166016 -2.36515625 14.00582031 -3.1328125 14.04101562 C-4.96302492 14.12314054 -6.79398669 14.18825653 -8.625 14.25 C-8.625 10.62 -8.625 6.99 -8.625 3.25 C-10.275 2.92 -11.925 2.59 -13.625 2.25 C-13.625 1.92 -13.625 1.59 -13.625 1.25 C-9.05103874 0.37202601 -4.65584621 0.05598212 0 0 Z " fill="#F6F6F6" transform="translate(869.625,17.75)"/>
<path d="M0 0 C6.81970618 0.53487892 9.75634549 2.50705055 14.25 7.5 C16.89254043 11.27505776 17.14049107 14.23148813 16.87890625 18.765625 C16.83056641 19.65507813 16.78222656 20.54453125 16.73242188 21.4609375 C16.67634766 22.38132812 16.62027344 23.30171875 16.5625 24.25 C16.51029297 25.18585937 16.45808594 26.12171875 16.40429688 27.0859375 C16.27493175 29.39098887 16.13997966 31.69557289 16 34 C15.34 33.34 14.68 32.68 14 32 C13.649375 32.9075 13.29875 33.815 12.9375 34.75 C10.4149103 38.98144079 8.46231648 40.00789443 4 42 C3.01 41.67 2.02 41.34 1 41 C1.5775 40.525625 2.155 40.05125 2.75 39.5625 C8.91936404 32.53627984 9.85365232 24.85813682 9.45703125 15.76171875 C8.8490821 10.75782961 7.39923447 7.65923258 4 4 C3.236875 3.175 2.47375 2.35 1.6875 1.5 C1.130625 1.005 0.57375 0.51 0 0 Z " fill="#7A7A7A" transform="translate(835,16)"/>
<path d="M0 0 C2.75141192 -0.24905022 5.25669812 -0.32673572 8 -0.25 C9.10601563 -0.24226562 9.10601563 -0.24226562 10.234375 -0.234375 C15.69055451 -0.15472274 15.69055451 -0.15472274 18 1 C18 1.99 18 2.98 18 4 C18.99 4.33 19.98 4.66 21 5 C15.06 5.33 9.12 5.66 3 6 C2.67 9.3 2.34 12.6 2 16 C2.66 16 3.32 16 4 16 C4 17.65 4 19.3 4 21 C3.34 21 2.68 21 2 21 C2.61312558 28.70453006 2.61312558 28.70453006 5 36 C7.00136244 37.42055068 7.00136244 37.42055068 9 38 C8.67 38.66 8.34 39.32 8 40 C7.01 40 6.02 40 5 40 C-1.84990128 32.29386106 -2.264125 21.77902139 -2.3125 11.9375 C-2.31797852 11.10387939 -2.32345703 10.27025879 -2.32910156 9.41137695 C-2.25752862 3.38629294 -2.25752862 3.38629294 0 0 Z " fill="#EBEBEB" transform="translate(745,14)"/>
<path d="M0 0 C3 2 3 2 3.6875 5.125 C3.790625 6.07375 3.89375 7.0225 4 8 C2.96875 7.319375 1.9375 6.63875 0.875 5.9375 C-1.84660249 4.39800768 -2.95556452 4.00087128 -6.1875 3.9375 C-9.79327023 5.29967987 -10.9734487 6.74304255 -13 10 C-15.53500442 16.46517314 -16.74576515 24.48736178 -14.171875 31.140625 C-12.72451153 33.36567631 -11.38336443 34.80831778 -9 36 C-9 36.66 -9 37.32 -9 38 C-5.37 38 -1.74 38 2 38 C1.67 38.66 1.34 39.32 1 40 C-3.05433359 40.59125698 -6.51762149 40.75283097 -10.23828125 38.86328125 C-16.24831279 34.18881227 -18.60388378 28.36402146 -20 21 C-20.15748022 17.95013306 -19.76371386 16.05485544 -19 13 C-18.83371094 12.32195313 -18.66742187 11.64390625 -18.49609375 10.9453125 C-17.08944874 6.25649581 -14.90026381 3.02754755 -11.0390625 -0.00390625 C-7.3632883 -1.79954307 -3.81188213 -1.18197896 0 0 Z " fill="#E4E4E4" transform="translate(795,13)"/>
<path d="M0 0 C0.66 0 1.32 0 2 0 C3.01383537 8.48617754 0.85784221 14.98900938 -4 22 C-8.69367809 26.08963935 -14.4174508 27.47384852 -20.515625 27.4140625 C-26.21217998 26.46463667 -30.67408927 22.76788098 -34.0625 18.25 C-35 16 -35 16 -35 14 C-32 15 -32 15 -30.25 17.375 C-27.39583788 20.70485581 -25.19171183 21.74248645 -21 23 C-15.86691173 22.98112835 -11.32642334 22.22694159 -7.5 18.6875 C-3.86072555 14.21262174 -3.10023628 8.52801643 -2 3 C-1.34 3 -0.68 3 0 3 C0 2.01 0 1.02 0 0 Z " fill="#101010" transform="translate(843,34)"/>
<path d="M0 0 C2.95409701 1.37154504 5.44008376 2.98863724 8 5 C3.25 8 3.25 8 1 8 C-0.78768044 13.97346877 -1.29202642 21.52450534 0.89453125 27.40625 C2.06083617 29.50086285 2.06083617 29.50086285 4 32 C1.8125 32.375 1.8125 32.375 -1 32 C-6.44965736 26.42648679 -7.39934003 22.21918054 -7.359375 14.67578125 C-7 12 -7 12 -4.625 8.8125 C-2 7 -2 7 0 7 C0 5.68 0 4.36 0 3 C-0.66 2.67 -1.32 2.34 -2 2 C-1.34 2 -0.68 2 0 2 C0 1.34 0 0.68 0 0 Z " fill="#818181" transform="translate(822,19)"/>
<path d="M0 0 C2 2 2 2 2.375 4.75 C1.82233344 9.53977683 -0.39069367 12.446187 -3.8125 15.75 C-6.74312419 17.42464239 -9.73877786 18.18469447 -13 19 C-11.95199219 19.45439453 -11.95199219 19.45439453 -10.8828125 19.91796875 C-9.97273437 20.33691406 -9.06265625 20.75585938 -8.125 21.1875 C-7.22007812 21.59355469 -6.31515625 21.99960937 -5.3828125 22.41796875 C-2.47393886 24.3492701 -1.88145585 25.66161263 -1 29 C-1 30.32 -1 31.64 -1 33 C-1.99 33 -2.98 33 -4 33 C-4.2165625 32.1028125 -4.2165625 32.1028125 -4.4375 31.1875 C-4.8872439 29.43849596 -5.42892341 27.71322977 -6 26 C-7.76498717 25.18825807 -7.76498717 25.18825807 -9.9375 24.6875 C-15.51909646 23.01840524 -20.13091572 20.14101679 -25 17 C-21.7062474 14.80416494 -21.06156877 14.83296518 -17.3125 15.0625 C-12.09392758 15.1540539 -8.66844893 14.37517577 -4 12 C-0.85992882 8.35346572 -0.4618876 4.71125349 0 0 Z " fill="#060606" transform="translate(889,22)"/>
<path d="M0 0 C-0.32484375 0.92619141 -0.32484375 0.92619141 -0.65625 1.87109375 C-3.00864468 9.02629424 -4.54888134 15.65341852 -1.6875 22.875 C-0.29181338 25.45960486 0.74525375 27.17472922 3 29 C-0.1875 29.375 -0.1875 29.375 -4 29 C-8.8225645 24.38711222 -10.11690819 20.71482396 -10.3125 14.25 C-10.27462825 9.13731409 -8.98158313 5.16768737 -6 1 C-4 0 -4 0 0 0 Z " fill="#818181" transform="translate(792,19)"/>
<path d="M0 0 C3.87545563 0.22358398 6.32215252 0.47857886 9.4375 2.875 C12.91458519 9.82917037 10.98073065 18.52192876 10 26 C9.01 26 8.02 26 7 26 C7 26.66 7 27.32 7 28 C5.68 27.34 4.36 26.68 3 26 C3.165 24.741875 3.33 23.48375 3.5 22.1875 C5.01933848 11.86065581 5.01933848 11.86065581 2 2.3125 C1.34 1.549375 0.68 0.78625 0 0 Z " fill="#858585" transform="translate(927,29)"/>
<path d="M0 0 C-0.309375 0.969375 -0.61875 1.93875 -0.9375 2.9375 C-2.17967097 7.23664491 -2.61684853 11.55342634 -3 16 C-3.33 16 -3.66 16 -4 16 C-4 14.35 -4 12.7 -4 11 C-4.804375 10.87625 -5.60875 10.7525 -6.4375 10.625 C-10.65858729 9.88445837 -14.82335017 8.95598874 -19 8 C-19 5.69 -19 3.38 -19 1 C-16.77100213 0.83109082 -14.54179338 0.66496313 -12.3125 0.5 C-10.45044922 0.36078125 -10.45044922 0.36078125 -8.55078125 0.21875 C-5.68500671 0.04220063 -2.86900043 -0.04388528 0 0 Z " fill="#EFEFEF" transform="translate(775,20)"/>
<path d="M0 0 C3.41664873 -0.02908357 6.8332655 -0.04682691 10.25 -0.0625 C11.70212891 -0.07506836 11.70212891 -0.07506836 13.18359375 -0.08789062 C14.11816406 -0.09111328 15.05273438 -0.09433594 16.015625 -0.09765625 C16.87446289 -0.10289307 17.73330078 -0.10812988 18.61816406 -0.11352539 C20.88670744 -0.00539986 22.82631715 0.36417577 25 1 C25.66 3.31 26.32 5.62 27 8 C25.41596476 9.58403524 23.7228362 9.21974935 21.52734375 9.31640625 C20.62822266 9.35830078 19.72910156 9.40019531 18.80273438 9.44335938 C17.38444336 9.50233398 17.38444336 9.50233398 15.9375 9.5625 C14.98810547 9.60568359 14.03871094 9.64886719 13.06054688 9.69335938 C10.70718647 9.79979276 8.35371646 9.90181008 6 10 C6 11.98 6 13.96 6 16 C5.34 16 4.68 16 4 16 C4 13.03 4 10.06 4 7 C8.95 6.67 13.9 6.34 19 6 C19 5.01 19 4.02 19 3 C12.73 3 6.46 3 0 3 C0 2.01 0 1.02 0 0 Z " fill="#070707" transform="translate(744,12)"/>
<path d="M0 0 C-0.70125 0.495 -1.4025 0.99 -2.125 1.5 C-6.34097979 5.16606938 -10.43634337 8.82391741 -11.44921875 14.53125 C-11.54306679 19.32471931 -10.98606254 23.5865277 -9 28 C-6.90464017 30.09535983 -5.68072225 30.61158267 -2.9375 31.5625 C0.90277778 32.90277778 0.90277778 32.90277778 2 34 C4.32817964 34.36760731 6.6618385 34.70241581 9 35 C9 35.33 9 35.66 9 36 C2.40107139 36.54991072 -2.53952135 35.92004888 -8 32 C-12.04124602 28.29925808 -15.03123525 24.48966694 -16 19 C-16.13039505 14.02053894 -15.92531555 9.57922408 -12.75 5.5625 C-8.59305113 1.68897946 -5.81971981 -0.49883313 0 0 Z " fill="#EDEDED" transform="translate(912,15)"/>
<path d="M0 0 C-0.804375 0.61875 -1.60875 1.2375 -2.4375 1.875 C-5.03874519 3.74164041 -5.03874519 3.74164041 -6 6 C-6.40501586 11.26520618 -5.8214114 14.52465778 -3 19 C-0.43802877 21.81356892 -0.43802877 21.81356892 2 24 C-3.27216362 23.58649697 -6.27385398 22.82965008 -10 19 C-12.56360077 14.93359878 -13.87995157 11.79084742 -13 7 C-10.902257 3.70063722 -8.72095555 0.65036111 -4.984375 -0.76171875 C-3 -1 -3 -1 0 0 Z " fill="#7D7D7D" transform="translate(915,22)"/>
<path d="M0 0 C3.93836608 3.64298863 4.58596686 6.72107745 5 12 C4.67 12 4.34 12 4 12 C3.505 14.475 3.505 14.475 3 17 C2.67 17 2.34 17 2 17 C1.95101562 16.32453125 1.90203125 15.6490625 1.8515625 14.953125 C1.77679687 14.06109375 1.70203125 13.1690625 1.625 12.25 C1.52058594 10.92742188 1.52058594 10.92742188 1.4140625 9.578125 C0.99025756 6.93933953 0.46918656 5.22574443 -1 3 C-11.42949327 -2.30956021 -23.71398119 0.1470755 -35 1 C-34.67 0.01 -34.34 -0.98 -34 -2 C-9.1459315 -5.7115409 -9.1459315 -5.7115409 0 0 Z " fill="#1B1B1B" transform="translate(886,12)"/>
<path d="M0 0 C5.37834418 0.4390485 9.80849996 1.42110381 14 5 C15.79422505 7.43667338 16.24948357 8.94432597 17 12 C15.75 14.8125 15.75 14.8125 14 17 C12.85647084 19.28705831 12.89665561 20.59264762 12.9375 23.125 C12.958125 24.40375 12.97875 25.6825 13 27 C7.58461538 30.07692308 7.58461538 30.07692308 4.625 29.6875 C4.08875 29.460625 3.5525 29.23375 3 29 C3.78375 28.4225 4.5675 27.845 5.375 27.25 C8.49234346 24.57799132 9.78175755 22.7175964 10.30078125 18.6328125 C10.32550219 13.34253061 10.08180113 9.51263737 7 5 C5.07977297 3.22590192 5.07977297 3.22590192 3 2 C2.01 1.34 1.02 0.68 0 0 Z " fill="#838383" transform="translate(880,9)"/>
<path d="M0 0 C3 1 3 1 4.625 3.5625 C7.94974029 11.87435073 6.99789159 18.67252336 4 27 C2.515625 29.359375 2.515625 29.359375 1 31 C0.34 31 -0.32 31 -1 31 C-1.495 32.485 -1.495 32.485 -2 34 C-5.87862084 35.39044898 -8.86462003 36 -13 36 C-14.75 33.5 -14.75 33.5 -16 31 C-15.03900391 31.06960937 -15.03900391 31.06960937 -14.05859375 31.140625 C-7.75097213 31.40383425 -3.96182624 31.0504704 1 27 C3.93639761 22.10239217 4.50091036 16.58980393 5 11 C4.34 11 3.68 11 3 11 C2.01 7.37 1.02 3.74 0 0 Z " fill="#E6E6E6" transform="translate(835,22)"/>
<path d="M0 0 C2.05078125 0.03255208 4.1015625 0.06510417 6.15234375 0.09765625 C3.57389289 3.24909619 1.08194619 4.16884113 -2.84765625 5.09765625 C-5.46737732 5.18618753 -8.05633334 5.16159629 -10.67578125 5.0703125 C-12.89651505 4.94045303 -12.89651505 4.94045303 -14.84765625 6.09765625 C-13.72746094 6.64035156 -12.60726562 7.18304688 -11.453125 7.7421875 C-9.98031133 8.46452287 -8.50766371 9.18719687 -7.03515625 9.91015625 C-6.29716797 10.26658203 -5.55917969 10.62300781 -4.79882812 10.99023438 C-4.08662109 11.34150391 -3.37441406 11.69277344 -2.640625 12.0546875 C-1.98602295 12.3741333 -1.3314209 12.6935791 -0.65698242 13.02270508 C1.26851439 14.16667519 2.64069886 15.4550976 4.15234375 17.09765625 C-0.21542845 17.09765625 -3.44275839 15.18602219 -7.34765625 13.34765625 C-8.11980469 12.99960937 -8.89195312 12.6515625 -9.6875 12.29296875 C-17.08760344 8.83018205 -17.08760344 8.83018205 -18.84765625 5.09765625 C-18.51765625 4.10765625 -18.18765625 3.11765625 -17.84765625 2.09765625 C-16.77644531 2.03707031 -15.70523438 1.97648437 -14.6015625 1.9140625 C-13.20441234 1.82967088 -11.80727768 1.74502219 -10.41015625 1.66015625 C-9.34958008 1.60118164 -9.34958008 1.60118164 -8.26757812 1.54101562 C-5.1939028 1.34983008 -2.73127444 0.14435911 0 0 Z " fill="#6D6D6D" transform="translate(879.84765625,32.90234375)"/>
<path d="M0 0 C0 0.66 0 1.32 0 2 C1.32 2.33 2.64 2.66 4 3 C4 3.99 4 4.98 4 6 C-1.77120144 10.41327169 -8.06910276 10.11949823 -15 10 C-15 9.34 -15 8.68 -15 8 C-14.34 8 -13.68 8 -13 8 C-13 7.34 -13 6.68 -13 6 C-8.545 5.505 -8.545 5.505 -4 5 C-6.64 4.34 -9.28 3.68 -12 3 C-8.48214012 -0.51785988 -4.80656342 -0.10924008 0 0 Z " fill="#070707" transform="translate(766,47)"/>
<path d="M0 0 C0.17743987 6.32868862 -0.49287912 12.25766516 -1.5 18.5 C-1.64308594 19.4178125 -1.78617188 20.335625 -1.93359375 21.28125 C-2.2836705 23.52174119 -2.6392349 25.76120947 -3 28 C-5 26 -5 26 -5.22705078 23.47802734 C-5.21657715 22.4411377 -5.20610352 21.40424805 -5.1953125 20.3359375 C-5.18886719 19.21445312 -5.18242188 18.09296875 -5.17578125 16.9375 C-5.15902344 15.761875 -5.14226563 14.58625 -5.125 13.375 C-5.11597656 12.19164062 -5.10695313 11.00828125 -5.09765625 9.7890625 C-5.07402812 6.85917477 -5.04108514 3.9296866 -5 1 C-1.125 0 -1.125 0 0 0 Z " fill="#EBEBEB" transform="translate(859,23)"/>
<path d="M0 0 C0.66 0 1.32 0 2 0 C2 0.99 2 1.98 2 3 C2.66 3 3.32 3 4 3 C4.31031192 8.79248918 4.22684742 13.98877007 1 19 C-2.35099393 21.99558548 -5.50855094 23.84464072 -10 24.3125 C-10.66 24.209375 -11.32 24.10625 -12 24 C-12 23.34 -12 22.68 -12 22 C-10.63875 21.6596875 -10.63875 21.6596875 -9.25 21.3125 C-5.50226185 19.79899036 -4.19781232 18.33741871 -2 15 C-0.9458482 11.83754459 -0.68724328 9.13051782 -0.4375 5.8125 C-0.35371094 4.72582031 -0.26992188 3.63914063 -0.18359375 2.51953125 C-0.12300781 1.68808594 -0.06242188 0.85664063 0 0 Z " fill="#0E0E0E" transform="translate(836,30)"/>
<path d="M0 0 C0.66 0.33 1.32 0.66 2 1 C2 1.33 2 1.66 2 2 C3.65 2.33 5.3 2.66 7 3 C7 3.99 7 4.98 7 6 C8.65 5.67 10.3 5.34 12 5 C12 5.99 12 6.98 12 8 C11.01 8.66 10.02 9.32 9 10 C9.33 11.32 9.66 12.64 10 14 C7.6568787 13.74438677 5.32156597 13.40729228 3 13 C2.67 12.34 2.34 11.68 2 11 C2.33 10.34 2.66 9.68 3 9 C2.34 9 1.68 9 1 9 C-1.1875 7.25 -1.1875 7.25 -3 5 C-2.875 2.8125 -2.875 2.8125 -2 1 C-1.34 0.67 -0.68 0.34 0 0 Z " fill="#111111" transform="translate(850,11)"/>
<path d="M0 0 C0.66 0.33 1.32 0.66 2 1 C0.38731308 3.71224618 -1.24901874 6.37352812 -3 9 C-3.28117324 12.26270075 -3.28117324 12.26270075 -3.1875 15.875 C-3.18105469 17.08929688 -3.17460938 18.30359375 -3.16796875 19.5546875 C-3.02448639 22.49774427 -2.67933242 25.14136918 -2 28 C-2.99 28.33 -3.98 28.66 -5 29 C-7.63700785 21.74822841 -8.37321047 13.84498931 -5.75 6.5 C-4.02420007 4.03457153 -2.23893812 2.00732383 0 0 Z " fill="#272727" transform="translate(812,20)"/>
<path d="M0 0 C0.33 1.32 0.66 2.64 1 4 C1.66 4 2.32 4 3 4 C3 5.32 3 6.64 3 8 C0.6875 9.5625 0.6875 9.5625 -2 11 C-3.75149165 12.58245275 -3.75149165 12.58245275 -5 14 C-6 12 -6 12 -5.4375 10.125 C-4.88010302 7.41764326 -5.59668102 6.31134891 -7 4 C-3.375 0 -3.375 0 0 0 Z " fill="#131313" transform="translate(819,18)"/>
<path d="M0 0 C2.62506802 -0.02690844 5.24986173 -0.04679404 7.875 -0.0625 C8.62136719 -0.07087891 9.36773438 -0.07925781 10.13671875 -0.08789062 C15.7734375 -0.11328125 15.7734375 -0.11328125 18 1 C18 1.99 18 2.98 18 4 C18.99 4.33 19.98 4.66 21 5 C15.06 5 9.12 5 3 5 C3.66 4.67 4.32 4.34 5 4 C5 3.01 5 2.02 5 1 C3.35 1 1.7 1 0 1 C0 0.67 0 0.34 0 0 Z " fill="#7B7B7B" transform="translate(745,14)"/>
<path d="M0 0 C6.67246705 0.86031809 12.47389099 3.13941071 18 7 C19.36687068 9.68013859 19.24536044 10.93299456 19 14 C16.525 13.505 16.525 13.505 14 13 C13.67 13.66 13.34 14.32 13 15 C12.89945313 14.40832031 12.79890625 13.81664062 12.6953125 13.20703125 C11.74077356 9.1992753 11.03317996 6.7287163 7.57421875 4.2890625 C5.08107888 3.0689403 2.59972532 1.97062915 0 1 C0 0.67 0 0.34 0 0 Z " fill="#8A8A8A" transform="translate(875,40)"/>
<path d="M0 0 C2.375 -0.125 2.375 -0.125 5 0 C7 2 7 2 7.265625 4.49609375 C7.26046875 5.46675781 7.2553125 6.43742187 7.25 7.4375 C7.25515625 8.40558594 7.2603125 9.37367187 7.265625 10.37109375 C7 13 7 13 5 16 C2.375 16.1875 2.375 16.1875 0 16 C0.66 15.01 1.32 14.02 2 13 C2.31600189 10.85209071 2.31600189 10.85209071 2.25 8.5625 C2.25515625 7.80066406 2.2603125 7.03882813 2.265625 6.25390625 C1.9747292 3.78556982 1.22975656 2.142314 0 0 Z " fill="#EBEBEB" transform="translate(881,17)"/>
<path d="M0 0 C7.99180328 -0.6147541 7.99180328 -0.6147541 11.5625 1.5625 C14.26236798 6.14053702 13.20506459 11.02910856 12 16 C11.67 16 11.34 16 11 16 C10.86722656 15.38511719 10.73445312 14.77023438 10.59765625 14.13671875 C10.42105469 13.32847656 10.24445312 12.52023438 10.0625 11.6875 C9.88847656 10.88699219 9.71445312 10.08648437 9.53515625 9.26171875 C9.00113841 6.854599 9.00113841 6.854599 8 4 C6.02 4 4.04 4 2 4 C2 3.01 2 2.02 2 1 C1.34 0.67 0.68 0.34 0 0 Z " fill="#7A7A7A" transform="translate(916,31)"/>
<path d="M0 0 C-5.78866409 5.78866409 -18.25603739 4.61229173 -26 5 C-25.67 4.01 -25.34 3.02 -25 2 C-16.61090382 0.7472283 -8.50262969 -0.36011137 0 0 Z " fill="#252525" transform="translate(877,8)"/>
<path d="M0 0 C3.04951395 1.52475697 5.36399506 2.92885326 8 5 C7.34 7.31 6.68 9.62 6 12 C3.03 11.505 3.03 11.505 0 11 C0 7.37 0 3.74 0 0 Z " fill="#838383" transform="translate(859,42)"/>
<path d="M0 0 C9.67238208 -0.86019208 9.67238208 -0.86019208 13.5625 2.25 C16.76787565 5.86632124 16.76787565 5.86632124 17 9 C16.34 9 15.68 9 15 9 C15 10.65 15 12.3 15 14 C14.67 14 14.34 14 14 14 C13.87882813 13.36191406 13.75765625 12.72382812 13.6328125 12.06640625 C13.46523438 11.24011719 13.29765625 10.41382813 13.125 9.5625 C12.96257813 8.73878906 12.80015625 7.91507813 12.6328125 7.06640625 C12.42398438 6.38449219 12.21515625 5.70257813 12 5 C9.47524538 3.73762269 7.68799534 3.90143596 4.875 3.9375 C3.96492187 3.94652344 3.05484375 3.95554687 2.1171875 3.96484375 C1.06917969 3.98224609 1.06917969 3.98224609 0 4 C0 2.68 0 1.36 0 0 Z " fill="#1B1B1B" transform="translate(915,28)"/>
<path d="M0 0 C1.98 0 3.96 0 6 0 C6.16276042 2.01822917 6.32552083 4.03645833 6.48828125 6.0546875 C6.87393036 8.39519216 6.87393036 8.39519216 10 10 C8.72125 10.061875 7.4425 10.12375 6.125 10.1875 C5.40570312 10.22230469 4.68640625 10.25710937 3.9453125 10.29296875 C3.30335938 10.19628906 2.66140625 10.09960938 2 10 C-0.4294516 6.3558226 -0.16179575 4.28758728 0 0 Z " fill="#808080" transform="translate(750,38)"/>
<path d="M0 0 C1.98 0 3.96 0 6 0 C5.67 3.3 5.34 6.6 5 10 C3.02 10.33 1.04 10.66 -1 11 C-0.67 7.37 -0.34 3.74 0 0 Z " fill="#858585" transform="translate(862,21)"/>
<path d="M0 0 C1.18851563 0.00902344 2.37703125 0.01804687 3.6015625 0.02734375 C4.51679687 0.03894531 5.43203125 0.05054687 6.375 0.0625 C6.705 0.7225 7.035 1.3825 7.375 2.0625 C6.35019531 2.13726563 5.32539062 2.21203125 4.26953125 2.2890625 C-3.08334351 2.69225594 -3.08334351 2.69225594 -9.62890625 5.53125 C-11.03263694 7.34067877 -11.03263694 7.34067877 -12.625 10.0625 C-13.615 10.0625 -14.605 10.0625 -15.625 10.0625 C-14.27217831 5.63508356 -12.39201112 3.69940779 -8.625 1.0625 C-5.74084117 -0.37957941 -3.20778472 -0.03144887 0 0 Z " fill="#0F0F0F" transform="translate(915.625,18.9375)"/>
<path d="M0 0 C6.12352138 0.36741128 8.78651436 1.78651436 13 6 C13 6.66 13 7.32 13 8 C12.01 8.495 12.01 8.495 11 9 C11 9.99 11 10.98 11 12 C9.02 11.34 7.04 10.68 5 10 C5.33 8.68 5.66 7.36 6 6 C5.01 5.195625 4.02 4.39125 3 3.5625 C2.01 2.716875 1.02 1.87125 0 1 C0 0.67 0 0.34 0 0 Z " fill="#8A8A8A" transform="translate(797,11)"/>
<path d="M0 0 C2 3 2 3 2.875 6.0625 C3.71071826 9.10913611 3.71071826 9.10913611 6.125 10.375 C6.74375 10.58125 7.3625 10.7875 8 11 C8 11.33 8 11.66 8 12 C11.63 12.33 15.26 12.66 19 13 C19 13.33 19 13.66 19 14 C14.7457873 15.06355318 10.34868582 15.8082406 6 15 C3.30894802 12.82425584 1.54467072 11.08934144 0 8 C-0.13415472 5.3276379 -0.04318541 2.67749512 0 0 Z " fill="#313131" transform="translate(748,38)"/>
<path d="M0 0 C1.98 0 3.96 0 6 0 C6 0.66 6 1.32 6 2 C5.01 2.495 5.01 2.495 4 3 C5.12019531 3.54269531 6.24039063 4.08539063 7.39453125 4.64453125 C8.86734492 5.36686662 10.33999254 6.08954062 11.8125 6.8125 C12.55048828 7.16892578 13.28847656 7.52535156 14.04882812 7.89257812 C14.76103516 8.24384766 15.47324219 8.59511719 16.20703125 8.95703125 C16.8616333 9.27647705 17.51623535 9.59592285 18.19067383 9.92504883 C20.11617064 11.06901894 21.48835511 12.35744135 23 14 C18.6322278 14 15.40489786 12.08836594 11.5 10.25 C10.72785156 9.90195312 9.95570313 9.55390625 9.16015625 9.1953125 C2.00420033 5.8467716 2.00420033 5.8467716 0 2 C0 1.34 0 0.68 0 0 Z " fill="#888888" transform="translate(861,36)"/>
<path d="M0 0 C2 2 2 2 2.375 4.75 C1.81513494 9.60216383 -0.42542316 12.57303974 -4 15.8125 C-6.0171612 17.01018946 -7.69995797 17.58927821 -10 18 C-10 17.34 -10 16.68 -10 16 C-10.66 15.67 -11.32 15.34 -12 15 C-10.741875 14.608125 -9.48375 14.21625 -8.1875 13.8125 C-5.29619521 12.71421284 -4.12492481 12.14507397 -2.0625 9.75 C-0.80862933 6.50468768 -0.33865417 3.45427255 0 0 Z " fill="#0E0E0E" transform="translate(889,22)"/>
<path d="M0 0 C1.43836751 0.11458693 2.87570966 0.24209116 4.3125 0.375 C5.51326172 0.47941406 5.51326172 0.47941406 6.73828125 0.5859375 C9 1 9 1 12 3 C12.6875 6.125 12.6875 6.125 13 9 C11.96875 8.34 10.9375 7.68 9.875 7 C6.46423174 5.02717274 3.9798357 4.61172335 0 5 C0.66 4.01 1.32 3.02 2 2 C1.34 1.34 0.68 0.68 0 0 Z " fill="#8B8B8B" transform="translate(786,12)"/>
<path d="M0 0 C0.99 0.33 1.98 0.66 3 1 C2.67 1.99 2.34 2.98 2 4 C-1.87862084 5.39044898 -4.86462003 6 -9 6 C-10.75 3.5 -10.75 3.5 -12 1 C-10.95199219 1.01740234 -10.95199219 1.01740234 -9.8828125 1.03515625 C-8.97273437 1.04417969 -8.06265625 1.05320313 -7.125 1.0625 C-5.76761719 1.07990234 -5.76761719 1.07990234 -4.3828125 1.09765625 C-1.9831415 1.16249257 -1.9831415 1.16249257 0 0 Z " fill="#7E7E7E" transform="translate(831,52)"/>
<path d="M0 0 C3.3 0 6.6 0 10 0 C9.67 1.32 9.34 2.64 9 4 C7.98679687 4.19916016 7.98679687 4.19916016 6.953125 4.40234375 C5.61507812 4.66724609 5.61507812 4.66724609 4.25 4.9375 C3.36828125 5.11152344 2.4865625 5.28554688 1.578125 5.46484375 C-0.63235053 5.92368488 -2.81512068 6.43336074 -5 7 C-4.175 6.030625 -3.35 5.06125 -2.5 4.0625 C0.10539608 1.52977999 0.10539608 1.52977999 0 0 Z " fill="#828282" transform="translate(910,14)"/>
<path d="M0 0 C0.66 0.763125 1.32 1.52625 2 2.3125 C5.21009573 5.5687178 8.71089801 6.57029934 13 8 C13.33 8.33 13.66 8.66 14 9 C16.32817964 9.36760731 18.6618385 9.70241581 21 10 C21 10.33 21 10.66 21 11 C14.42258205 11.54811816 9.44973552 10.90959287 4 7 C2.08629074 5.09558059 0.5964184 3.1950753 -1 1 C-0.67 0.67 -0.34 0.34 0 0 Z " fill="#ADADAD" transform="translate(900,40)"/>
<path d="M0 0 C2.64 0.66 5.28 1.32 8 2 C8 3.98 8 5.96 8 8 C6.02 8 4.04 8 2 8 C1.34 5.36 0.68 2.72 0 0 Z " fill="#8A8A8A" transform="translate(763,29)"/>
<path d="M0 0 C0.99 0.33 1.98 0.66 3 1 C1.73625877 3.52748246 0.72794086 3.7343939 -1.8125 4.875 C-5.17118306 6.47896713 -7.54727628 8.13848899 -10 11 C-10.33 9.68 -10.66 8.36 -11 7 C-9.54261898 6.01941648 -8.08406325 5.04057868 -6.625 4.0625 C-5.81289063 3.51722656 -5.00078125 2.97195312 -4.1640625 2.41015625 C-2 1 -2 1 0 0 Z " fill="#1D1D1D" transform="translate(908,12)"/>
<path d="M0 0 C2.4375 0.375 2.4375 0.375 5 1 C5.33 1.66 5.66 2.32 6 3 C5.34 3 4.68 3 4 3 C4 3.99 4 4.98 4 6 C0.86501708 7.85776765 -1.37471432 8.20140476 -5 8 C-4.360625 7.236875 -3.72125 6.47375 -3.0625 5.6875 C-0.85767219 3.11753287 -0.85767219 3.11753287 0 0 Z " fill="#8F8F8F" transform="translate(803,48)"/>
<path d="M0 0 C1.98 0 3.96 0 6 0 C6 0.66 6 1.32 6 2 C7.32 2 8.64 2 10 2 C10 2.66 10 3.32 10 4 C6.44239635 6.61588503 3.35522853 7.49357808 -1 8 C0.375 6.5 0.375 6.5 2 5 C2.66 5 3.32 5 4 5 C3.24849977 1.72226496 3.24849977 1.72226496 0 0 Z " fill="#8F8F8F" transform="translate(766,48)"/>
<path d="M0 0 C1.98 0 3.96 0 6 0 C6 0.66 6 1.32 6 2 C7.134375 2.12375 8.26875 2.2475 9.4375 2.375 C10.613125 2.58125 11.78875 2.7875 13 3 C13.33 3.66 13.66 4.32 14 5 C9.38 5 4.76 5 0 5 C0 3.35 0 1.7 0 0 Z " fill="#737373" transform="translate(749,30)"/>
<path d="M0 0 C1.98 0 3.96 0 6 0 C6 1.98 6 3.96 6 6 C4.02 6 2.04 6 0 6 C0 4.02 0 2.04 0 0 Z " fill="#797979" transform="translate(750,22)"/>
<path d="M0 0 C2.475 0.99 2.475 0.99 5 2 C5 2.99 5 3.98 5 5 C6.98 5 8.96 5 11 5 C10.01 6.485 10.01 6.485 9 8 C6.36 7.67 3.72 7.34 1 7 C0.67 4.69 0.34 2.38 0 0 Z " fill="#121212" transform="translate(913,30)"/>
<path d="M0 0 C0.66 0 1.32 0 2 0 C2.33 1.98 2.66 3.96 3 6 C-2.41538462 9.07692308 -2.41538462 9.07692308 -5.375 8.6875 C-5.91125 8.460625 -6.4475 8.23375 -7 8 C-6.21625 7.4225 -5.4325 6.845 -4.625 6.25 C-2.19952756 4.17102363 -1.14305583 2.90959667 0 0 Z " fill="#7C7C7C" transform="translate(890,30)"/>
<path d="M0 0 C5.27216362 0.41350303 8.27385398 1.17034992 12 5 C13.8125 8.25 13.8125 8.25 15 11 C14.01 11.495 14.01 11.495 13 12 C12.4225 11.071875 11.845 10.14375 11.25 9.1875 C8.0575276 4.66483076 5.1584838 2.86278582 0 1 C0 0.67 0 0.34 0 0 Z " fill="#9C9C9C" transform="translate(835,16)"/>
<path d="M0 0 C0.33 0 0.66 0 1 0 C1.99 4.29 2.98 8.58 4 13 C3.01 13.33 2.02 13.66 1 14 C-0.44209192 9.49346274 -1.34223148 5.79124078 -1 1 C-0.67 0.67 -0.34 0.34 0 0 Z " fill="#1B1B1B" transform="translate(806,35)"/>
<path d="M0 0 C2.475 0.99 2.475 0.99 5 2 C4.34 2.66 3.68 3.32 3 4 C3.66 4.33 4.32 4.66 5 5 C5 5.66 5 6.32 5 7 C3.02 7 1.04 7 -1 7 C-2 4 -2 4 -1.0625 1.8125 C-0.5365625 0.9153125 -0.5365625 0.9153125 0 0 Z " fill="#858585" transform="translate(927,13)"/>
<path d="M0 0 C2.97 0.495 2.97 0.495 6 1 C6.33 2.65 6.66 4.3 7 6 C5.35 6.33 3.7 6.66 2 7 C0 4 0 4 0 0 Z " fill="#7C7C7C" transform="translate(769,13)"/>
<path d="M0 0 C0.66 0.33 1.32 0.66 2 1 C0.47291037 4.43595166 -1.59927045 7.11912454 -4 10 C-4.66 9.67 -5.32 9.34 -6 9 C-4.68775452 5.06326356 -3.08089673 2.77280706 0 0 Z " fill="#1E1E1E" transform="translate(781,12)"/>
<path d="M0 0 C0.33 0 0.66 0 1 0 C1.33 3.63 1.66 7.26 2 11 C1.34 10.34 0.68 9.68 0 9 C-0.99 10.98 -1.98 12.96 -3 15 C-4.39852912 10.80441263 -2.77263136 8.95433149 -1 5 C-0.30859478 2.22111387 -0.30859478 2.22111387 0 0 Z " fill="#9E9E9E" transform="translate(849,39)"/>
<path d="M0 0 C0 2.97 0 5.94 0 9 C-0.99 9.33 -1.98 9.66 -3 10 C-3 7.03 -3 4.06 -3 1 C-1 0 -1 0 0 0 Z " fill="#212121" transform="translate(815,31)"/>
<path d="M0 0 C0.66 0.66 1.32 1.32 2 2 C0.86963623 5.12586629 -0.30699573 8.13325156 -2 11 C-4.75 12.0625 -4.75 12.0625 -7 12 C-6.21625 11.13375 -5.4325 10.2675 -4.625 9.375 C-2.16613272 6.44943553 -0.97549896 3.72463238 0 0 Z " fill="#D7D7D7" transform="translate(839,41)"/>
<path d="M0 0 C1.32 0 2.64 0 4 0 C3.67 3.63 3.34 7.26 3 11 C2.67 11 2.34 11 2 11 C1.34 7.37 0.68 3.74 0 0 Z " fill="#EDEDED" transform="translate(925,36)"/>
<path d="M0 0 C1.98 0 3.96 0 6 0 C6 0.66 6 1.32 6 2 C6.66 2.33 7.32 2.66 8 3 C7 4 7 4 4.4375 4.0625 C3.2309375 4.0315625 3.2309375 4.0315625 2 4 C2 3.01 2 2.02 2 1 C1.34 0.67 0.68 0.34 0 0 Z " fill="#F4F4F4" transform="translate(916,31)"/>
<path d="M0 0 C0 0.99 0 1.98 0 3 C-3.3 2.67 -6.6 2.34 -10 2 C-10 1.67 -10 1.34 -10 1 C-6.59437148 0.22157062 -3.49234244 -0.09978121 0 0 Z " fill="#101010" transform="translate(880,9)"/>
<path d="M0 0 C3.36591866 1.44253657 5.51047079 3.33264727 8 6 C5.21788056 5.62403791 3.4120716 5.32681541 1.1875 3.5625 C0 2 0 2 0 0 Z " fill="#909090" transform="translate(909,40)"/>
<path d="M0 0 C2.96175123 0.61277612 4.38058783 1.25372522 7 3 C4.69 3.33 2.38 3.66 0 4 C0 2.68 0 1.36 0 0 Z " fill="#303030" transform="translate(915,28)"/>
<path d="M0 0 C3.875 1.75 3.875 1.75 5 4 C3.35 4.33 1.7 4.66 0 5 C0 4.34 0 3.68 0 3 C-0.66 2.67 -1.32 2.34 -2 2 C-1.34 2 -0.68 2 0 2 C0 1.34 0 0.68 0 0 Z " fill="#A8A8A8" transform="translate(822,19)"/>
<path d="M0 0 C0.66 0.33 1.32 0.66 2 1 C0.515 3.475 0.515 3.475 -1 6 C-2.32 5.67 -3.64 5.34 -5 5 C-3.35 3.35 -1.7 1.7 0 0 Z " fill="#212121" transform="translate(812,20)"/>
</svg>
